<svg xmlns="http://www.w3.org/2000/svg" viewBox="0 0 1200 630" width="1200" height="630">
  <defs>
    <linearGradient id="bg" x1="0%" y1="0%" x2="100%" y2="100%">
      <stop offset="0%" style="stop-color:#0d1117"/>
      <stop offset="50%" style="stop-color:#0f172a"/>
      <stop offset="100%" style="stop-color:#1a1a2e"/>
    </linearGradient>
    <filter id="glow">
      <feGaussianBlur stdDeviation="3" result="b"/>
      <feMerge><feMergeNode in="b"/><feMergeNode in="SourceGraphic"/></feMerge>
    </filter>
  </defs>
  <rect width="1200" height="630" fill="url(#bg)"/>
  <g opacity="0.03" stroke="#fff" stroke-width="0.5">
    <line x1="0" y1="70" x2="1200" y2="70"/><line x1="0" y1="140" x2="1200" y2="140"/>
    <line x1="0" y1="210" x2="1200" y2="210"/><line x1="0" y1="280" x2="1200" y2="280"/>
    <line x1="0" y1="350" x2="1200" y2="350"/><line x1="0" y1="420" x2="1200" y2="420"/>
    <line x1="0" y1="490" x2="1200" y2="490"/><line x1="0" y1="560" x2="1200" y2="560"/>
    <line x1="150" y1="0" x2="150" y2="630"/><line x1="300" y1="0" x2="300" y2="630"/>
    <line x1="450" y1="0" x2="450" y2="630"/><line x1="600" y1="0" x2="600" y2="630"/>
    <line x1="750" y1="0" x2="750" y2="630"/><line x1="900" y1="0" x2="900" y2="630"/>
    <line x1="1050" y1="0" x2="1050" y2="630"/>
  </g>
  <!-- Central target/shield -->
  <g filter="url(#glow)">
    <circle cx="600" cy="330" r="80" fill="none" stroke="#6bcf7f" stroke-width="2" opacity="0.3"/>
    <circle cx="600" cy="330" r="50" fill="none" stroke="#6bcf7f" stroke-width="1.5" opacity="0.25"/>
    <circle cx="600" cy="330" r="20" fill="none" stroke="#6bcf7f" stroke-width="1" opacity="0.2"/>
    <text x="600" y="335" text-anchor="middle" font-family="monospace" font-size="14" fill="#6bcf7f" opacity="0.5">⚡</text>
  </g>
  <!-- Attack arrows hitting the shield -->
  <g filter="url(#glow)">
    <!-- Arrow 1 - Injection -->
    <line x1="200" y1="200" x2="530" y2="300" stroke="#ff6b6b" stroke-width="2" opacity="0.6" marker-end="url(#red-arrow)"/>
    <text x="250" y="195" font-family="monospace" font-size="8" fill="#ff6b6b" opacity="0.7">Prompt Injection</text>
    
    <!-- Arrow 2 - Jailbreak -->
    <line x1="150" y1="380" x2="530" y2="350" stroke="#ffd93d" stroke-width="2" opacity="0.6" marker-end="url(#yellow-arrow)"/>
    <text x="190" y="400" font-family="monospace" font-size="8" fill="#ffd93d" opacity="0.7">Jailbreak</text>
    
    <!-- Arrow 3 - Extraction -->
    <line x1="1000" y1="220" x2="670" y2="305" stroke="#a78bfa" stroke-width="2" opacity="0.6" marker-end="url(#purple-arrow)"/>
    <text x="880" y="205" font-family="monospace" font-size="8" fill="#a78bfa" opacity="0.7">Model Extraction</text>
    
    <!-- Arrow 4 - Poisoning -->
    <line x1="1050" y1="420" x2="670" y2="360" stroke="#ff6b6b" stroke-width="2" opacity="0.6" marker-end="url(#red-arrow)"/>
    <text x="950" y="440" font-family="monospace" font-size="8" fill="#ff6b6b" opacity="0.7">Data Poisoning</text>
  </g>
  <!-- Arrow defs -->
  <defs>
    <marker id="red-arrow" viewBox="0 0 10 10" refX="8" refY="5" markerWidth="6" markerHeight="6" orient="auto">
      <path d="M 0 0 L 10 5 L 0 10 z" fill="#ff6b6b"/>
    </marker>
    <marker id="yellow-arrow" viewBox="0 0 10 10" refX="8" refY="5" markerWidth="6" markerHeight="6" orient="auto">
      <path d="M 0 0 L 10 5 L 0 10 z" fill="#ffd93d"/>
    </marker>
    <marker id="purple-arrow" viewBox="0 0 10 10" refX="8" refY="5" markerWidth="6" markerHeight="6" orient="auto">
      <path d="M 0 0 L 10 5 L 0 10 z" fill="#a78bfa"/>
    </marker>
  </defs>
  <!-- Shield overlay -->
  <g filter="url(#glow)">
    <path d="M 600 240 L 700 275 L 700 350 Q 700 410 600 440 Q 500 410 500 350 L 500 275 Z" fill="none" stroke="#6bcf7f" stroke-width="2" opacity="0.5"/>
    <text x="600" y="355" text-anchor="middle" font-family="monospace" font-size="8" fill="#6bcf7f" opacity="0.6">RED TEAM</text>
  </g>
  <text x="600" y="125" text-anchor="middle" font-family="'Segoe UI','Helvetica Neue',Arial,sans-serif" font-size="34" font-weight="700" fill="#e6edf3" letter-spacing="1">Automated AI Red Teaming</text>
  <text x="600" y="167" text-anchor="middle" font-family="'Segoe UI','Helvetica Neue',Arial,sans-serif" font-size="34" font-weight="700" fill="#e6edf3" letter-spacing="1">at Scale</text>
  <text x="600" y="530" text-anchor="middle" font-family="'Segoe UI','Helvetica Neue',Arial,sans-serif" font-size="13" fill="#8b949e" letter-spacing="3">VULNERABILITY DISCOVERY · LLM SECURITY</text>
  <line x1="420" y1="545" x2="780" y2="545" stroke="#6bcf7f" stroke-width="2" opacity="0.4"/>
  <text x="1090" y="600" text-anchor="end" font-family="'Segoe UI','Helvetica Neue',Arial,sans-serif" font-size="11" fill="#484f58">ml-ke.github.io</text>
  <circle cx="1110" cy="607" r="3" fill="#6bcf7f" opacity="0.6"/>
</svg>