<svg xmlns="http://www.w3.org/2000/svg" viewBox="0 0 1200 630" width="1200" height="630">
  <defs>
    <linearGradient id="bg" x1="0%" y1="0%" x2="100%" y2="100%">
      <stop offset="0%" style="stop-color:#0d1117"/>
      <stop offset="50%" style="stop-color:#0f172a"/>
      <stop offset="100%" style="stop-color:#1a1a2e"/>
    </linearGradient>
    <filter id="glow">
      <feGaussianBlur stdDeviation="3" result="b"/>
      <feMerge><feMergeNode in="b"/><feMergeNode in="SourceGraphic"/></feMerge>
    </filter>
  </defs>
  <rect width="1200" height="630" fill="url(#bg)"/>
  <g opacity="0.03" stroke="#fff" stroke-width="0.5">
    <line x1="0" y1="70" x2="1200" y2="70"/><line x1="0" y1="140" x2="1200" y2="140"/>
    <line x1="0" y1="210" x2="1200" y2="210"/><line x1="0" y1="280" x2="1200" y2="280"/>
    <line x1="0" y1="350" x2="1200" y2="350"/><line x1="0" y1="420" x2="1200" y2="420"/>
    <line x1="0" y1="490" x2="1200" y2="490"/><line x1="0" y1="560" x2="1200" y2="560"/>
    <line x1="150" y1="0" x2="150" y2="630"/><line x1="300" y1="0" x2="300" y2="630"/>
    <line x1="450" y1="0" x2="450" y2="630"/><line x1="600" y1="0" x2="600" y2="630"/>
    <line x1="750" y1="0" x2="750" y2="630"/><line x1="900" y1="0" x2="900" y2="630"/>
    <line x1="1050" y1="0" x2="1050" y2="630"/>
  </g>
  <!-- Vault door (center) -->
  <g filter="url(#glow)">
    <rect x="480" y="240" width="140" height="130" rx="8" fill="none" stroke="#00d2ff" stroke-width="2" opacity="0.4"/>
    <rect x="490" y="250" width="120" height="110" rx="4" fill="#00d2ff" opacity="0.04"/>
    <!-- Vault handle -->
    <circle cx="550" cy="320" r="18" fill="none" stroke="#00d2ff" stroke-width="2" opacity="0.5"/>
    <circle cx="550" cy="320" r="6" fill="#00d2ff" opacity="0.3"/>
    <line x1="550" y1="302" x2="550" y2="290" stroke="#00d2ff" stroke-width="2" opacity="0.4"/>
    <!-- Hinges -->
    <rect x="615" y="260" width="5" height="15" rx="2" fill="#00d2ff" opacity="0.3"/>
    <rect x="615" y="345" width="5" height="15" rx="2" fill="#00d2ff" opacity="0.3"/>
  </g>
  <!-- Key -->
  <g filter="url(#glow)">
    <!-- Key shaft -->
    <rect x="300" y="315" width="140" height="8" rx="2" fill="#ffd93d" opacity="0.6"/>
    <!-- Key bow (handle) -->
    <circle cx="295" cy="319" r="20" fill="none" stroke="#ffd93d" stroke-width="2.5" opacity="0.6"/>
    <circle cx="295" cy="319" r="12" fill="none" stroke="#ffd93d" stroke-width="1.5" opacity="0.4"/>
    <!-- Key teeth -->
    <rect x="430" y="315" width="10" height="18" rx="1" fill="#ffd93d" opacity="0.5"/>
    <rect x="415" y="315" width="10" height="14" rx="1" fill="#ffd93d" opacity="0.5"/>
    <rect x="445" y="315" width="8" height="12" rx="1" fill="#ffd93d" opacity="0.4"/>
  </g>
  <!-- Circuit traces connecting key to vault -->
  <g filter="url(#glow)" stroke="#ffd93d" stroke-width="1.5" opacity="0.3" fill="none">
    <path d="M 445 319 L 470 319 L 480 300"/>
    <path d="M 445 322 L 470 322 L 480 350"/>
  </g>
  <!-- API key string -->
  <g filter="url(#glow)" opacity="0.3">
    <text x="550" y="220" text-anchor="middle" font-family="monospace" font-size="8" fill="#ffd93d">OPENAI_API_KEY=sk-********************</text>
    <text x="550" y="410" text-anchor="middle" font-family="monospace" font-size="8" fill="#00d2ff">HF_TOKEN=hf_**************************</text>
  </g>
  <!-- Small lock icons -->
  <g filter="url(#glow)">
    <rect x="780" y="270" width="35" height="28" rx="4" fill="none" stroke="#6bcf7f" stroke-width="1.5" opacity="0.5"/>
    <path d="M 790 270 L 790 260 Q 797 250 805 260 L 805 270" fill="none" stroke="#6bcf7f" stroke-width="1.5" opacity="0.4"/>
    <circle cx="797" cy="282" r="3" fill="#6bcf7f" opacity="0.4"/>
    <line x1="797" y1="285" x2="797" y2="290" stroke="#6bcf7f" stroke-width="1" opacity="0.3"/>
    
    <rect x="780" y="340" width="35" height="28" rx="4" fill="none" stroke="#6bcf7f" stroke-width="1.5" opacity="0.5"/>
    <path d="M 790 340 L 790 330 Q 797 320 805 330 L 805 340" fill="none" stroke="#6bcf7f" stroke-width="1.5" opacity="0.4"/>
    <circle cx="797" cy="352" r="3" fill="#6bcf7f" opacity="0.4"/>
    <line x1="797" y1="355" x2="797" y2="360" stroke="#6bcf7f" stroke-width="1" opacity="0.3"/>
  </g>
  <!-- Credential tokens flowing -->
  <g filter="url(#glow)" opacity="0.15">
    <text x="870" y="290" font-family="monospace" font-size="7" fill="#6bcf7f">AWS_KEY ✓</text>
    <text x="870" y="360" font-family="monospace" font-size="7" fill="#6bcf7f">VAULT_OK ✓</text>
  </g>
  <text x="600" y="125" text-anchor="middle" font-family="'Segoe UI','Helvetica Neue',Arial,sans-serif" font-size="34" font-weight="700" fill="#e6edf3" letter-spacing="1">ML Pipeline Secrets</text>
  <text x="600" y="167" text-anchor="middle" font-family="'Segoe UI','Helvetica Neue',Arial,sans-serif" font-size="34" font-weight="700" fill="#e6edf3" letter-spacing="1">Management</text>
  <text x="600" y="530" text-anchor="middle" font-family="'Segoe UI','Helvetica Neue',Arial,sans-serif" font-size="13" fill="#8b949e" letter-spacing="3">VAULT · API KEYS · CREDENTIAL HYGIENE</text>
  <line x1="420" y1="545" x2="780" y2="545" stroke="#00d2ff" stroke-width="2" opacity="0.4"/>
  <text x="1090" y="600" text-anchor="end" font-family="'Segoe UI','Helvetica Neue',Arial,sans-serif" font-size="11" fill="#484f58">ml-ke.github.io</text>
  <circle cx="1110" cy="607" r="3" fill="#00d2ff" opacity="0.6"/>
</svg>