<svg xmlns="http://www.w3.org/2000/svg" width="1200" height="630" viewBox="0 0 1200 630">
  <defs>
    <linearGradient id="bg" x1="0" y1="0" x2="1" y2="1">
      <stop offset="0%" stop-color="#0d1117"/>
      <stop offset="40%" stop-color="#1a1a2e"/>
      <stop offset="100%" stop-color="#0d1117"/>
    </linearGradient>
  </defs>
  <rect width="1200" height="630" fill="url(#bg)"/>
  <g stroke="#ffd93d" stroke-opacity="0.04" stroke-width="1">
    <line x1="0" y1="126" x2="1200" y2="126"/>
    <line x1="0" y1="315" x2="1200" y2="315"/>
    <line x1="0" y1="504" x2="1200" y2="504"/>
  </g>
  <!-- Data center abstract -->
  <g fill="none" stroke="#00d2ff" stroke-opacity="0.12" stroke-width="1">
    <rect x="430" y="230" width="340" height="200" rx="4"/>
    <rect x="450" y="250" width="140" height="80" rx="2"/>
    <rect x="610" y="250" width="140" height="80" rx="2"/>
    <rect x="450" y="350" width="140" height="60" rx="2"/>
    <rect x="610" y="350" width="140" height="60" rx="2"/>
  </g>
  <!-- Server rack lines -->
  <g stroke="#6bcf7f" stroke-opacity="0.08" stroke-width="0.5">
    <line x1="460" y1="260" x2="580" y2="260"/>
    <line x1="460" y1="275" x2="580" y2="275"/>
    <line x1="460" y1="290" x2="580" y2="290"/>
    <line x1="460" y1="305" x2="580" y2="305"/>
    <line x1="620" y1="260" x2="740" y2="260"/>
    <line x1="620" y1="275" x2="740" y2="275"/>
    <line x1="620" y1="290" x2="740" y2="290"/>
    <line x1="620" y1="305" x2="740" y2="305"/>
  </g>
  <!-- Shield over data center -->
  <g transform="translate(600, 315)" fill="none" stroke="#ffd93d" stroke-opacity="0.25" stroke-width="1.5">
    <path d="M 0 -70 L 50 -35 L 50 25 Q 50 55 0 70 Q -50 55 -50 25 L -50 -35 Z"/>
  </g>
  <text x="600" y="160" text-anchor="middle" font-family="sans-serif" font-size="30" font-weight="bold" fill="#ffffff" letter-spacing="1">Sovereign AI Compute</text>
  <text x="600" y="195" text-anchor="middle" font-family="sans-serif" font-size="18" fill="#a78bfa">UAE's National AI Infrastructure Play</text>
  <text x="600" y="430" text-anchor="middle" font-family="sans-serif" font-size="16" fill="#8b949e">Core42 + e&amp; UAE • Zero Egress • In-Country GPUs</text>
  <text x="50" y="595" font-family="monospace" font-size="14" fill="#8b949e" opacity="0.6">ml-ke.github.io</text>
</svg>