<svg xmlns="http://www.w3.org/2000/svg" viewBox="0 0 1200 630" width="1200" height="630">
  <defs>
    <linearGradient id="bg" x1="0%" y1="0%" x2="100%" y2="100%">
      <stop offset="0%" style="stop-color:#0d1117"/>
      <stop offset="50%" style="stop-color:#161b22"/>
      <stop offset="100%" style="stop-color:#1a1a2e"/>
    </linearGradient>
    <linearGradient id="g1" x1="0%" y1="0%" x2="100%" y2="100%">
      <stop offset="0%" style="stop-color:#00d2ff"/>
      <stop offset="100%" style="stop-color:#6bcf7f"/>
    </linearGradient>
    <filter id="glow">
      <feGaussianBlur stdDeviation="3" result="b"/>
      <feMerge><feMergeNode in="b"/><feMergeNode in="SourceGraphic"/></feMerge>
    </filter>
  </defs>
  <rect width="1200" height="630" fill="url(#bg)"/>
  <g opacity="0.03" stroke="#fff" stroke-width="0.5">
    <line x1="0" y1="70" x2="1200" y2="70"/><line x1="0" y1="140" x2="1200" y2="140"/>
    <line x1="0" y1="210" x2="1200" y2="210"/><line x1="0" y1="280" x2="1200" y2="280"/>
    <line x1="0" y1="350" x2="1200" y2="350"/><line x1="0" y1="420" x2="1200" y2="420"/>
    <line x1="0" y1="490" x2="1200" y2="490"/><line x1="0" y1="560" x2="1200" y2="560"/>
    <line x1="150" y1="0" x2="150" y2="630"/><line x1="300" y1="0" x2="300" y2="630"/>
    <line x1="450" y1="0" x2="450" y2="630"/><line x1="600" y1="0" x2="600" y2="630"/>
    <line x1="750" y1="0" x2="750" y2="630"/><line x1="900" y1="0" x2="900" y2="630"/>
    <line x1="1050" y1="0" x2="1050" y2="630"/>
  </g>
  
  <g filter="url(#glow)">
    <rect x="250" y="250" width="100" height="100" rx="8" fill="none" stroke="#00d2ff" stroke-width="2" opacity="0.5"/>
    <rect x="450" y="220" width="100" height="100" rx="8" fill="none" stroke="#6bcf7f" stroke-width="2" opacity="0.5"/>
    <rect x="650" y="240" width="100" height="100" rx="8" fill="none" stroke="#a78bfa" stroke-width="2" opacity="0.5"/>
    <rect x="850" y="260" width="100" height="100" rx="8" fill="none" stroke="#00d2ff" stroke-width="2" opacity="0.4"/>
    <text x="300" y="305" text-anchor="middle" font-family="monospace" font-size="12" fill="#00d2ff" opacity="0.7">h₁</text>
    <text x="500" y="275" text-anchor="middle" font-family="monospace" font-size="12" fill="#6bcf7f" opacity="0.7">h₂</text>
    <text x="700" y="295" text-anchor="middle" font-family="monospace" font-size="12" fill="#a78bfa" opacity="0.7">h₃</text>
    <text x="900" y="315" text-anchor="middle" font-family="monospace" font-size="12" fill="#00d2ff" opacity="0.6">hₙ</text>
  </g>
  <g stroke="#00d2ff" stroke-width="1.5" opacity="0.15">
    <line x1="350" y1="300" x2="450" y2="270"/>
    <line x1="550" y1="270" x2="650" y2="290"/>
    <line x1="750" y1="290" x2="850" y2="310"/>
  </g>
  <text x="600" y="140" text-anchor="middle" font-family="'Segoe UI','Helvetica Neue',Arial,sans-serif" font-size="34" font-weight="700" fill="#e6edf3" letter-spacing="1">Model Watermarking:</text>
  <text x="600" y="182" text-anchor="middle" font-family="'Segoe UI','Helvetica Neue',Arial,sans-serif" font-size="34" font-weight="700" fill="#e6edf3" letter-spacing="1">Proving AI Ownership</text>
  <text x="600" y="520" text-anchor="middle" font-family="'Segoe UI','Helvetica Neue',Arial,sans-serif" font-size="13" fill="#8b949e" letter-spacing="3">THEFT DETECTION · IP PROTECTION</text>
  <line x1="420" y1="535" x2="780" y2="535" stroke="url(#g1)" stroke-width="2" opacity="0.4"/>
  <text x="1090" y="600" text-anchor="end" font-family="'Segoe UI','Helvetica Neue',Arial,sans-serif" font-size="11" fill="#484f58">ml-ke.github.io</text>
  <circle cx="1110" cy="607" r="3" fill="#00d2ff" opacity="0.6"/>
</svg>