<svg xmlns="http://www.w3.org/2000/svg" viewBox="0 0 1200 630" width="1200" height="630">
  <defs>
    <linearGradient id="bg" x1="0%" y1="0%" x2="100%" y2="100%">
      <stop offset="0%" style="stop-color:#0d1117"/>
      <stop offset="50%" style="stop-color:#161b22"/>
      <stop offset="100%" style="stop-color:#1a1a2e"/>
    </linearGradient>
    <linearGradient id="g1" x1="0%" y1="0%" x2="100%" y2="100%">
      <stop offset="0%" style="stop-color:#ff6b6b"/>
      <stop offset="100%" style="stop-color:#a78bfa"/>
    </linearGradient>
    <filter id="glow">
      <feGaussianBlur stdDeviation="3" result="b"/>
      <feMerge><feMergeNode in="b"/><feMergeNode in="SourceGraphic"/></feMerge>
    </filter>
  </defs>
  <rect width="1200" height="630" fill="url(#bg)"/>
  <g opacity="0.03" stroke="#fff" stroke-width="0.5">
    <line x1="0" y1="70" x2="1200" y2="70"/><line x1="0" y1="140" x2="1200" y2="140"/>
    <line x1="0" y1="210" x2="1200" y2="210"/><line x1="0" y1="280" x2="1200" y2="280"/>
    <line x1="0" y1="350" x2="1200" y2="350"/><line x1="0" y1="420" x2="1200" y2="420"/>
    <line x1="0" y1="490" x2="1200" y2="490"/><line x1="0" y1="560" x2="1200" y2="560"/>
    <line x1="150" y1="0" x2="150" y2="630"/><line x1="300" y1="0" x2="300" y2="630"/>
    <line x1="450" y1="0" x2="450" y2="630"/><line x1="600" y1="0" x2="600" y2="630"/>
    <line x1="750" y1="0" x2="750" y2="630"/><line x1="900" y1="0" x2="900" y2="630"/>
    <line x1="1050" y1="0" x2="1050" y2="630"/>
  </g>
  
  <g filter="url(#glow)">
    <!-- Dataset -->
    <rect x="250" y="200" width="200" height="120" rx="6" fill="none" stroke="#ff6b6b" stroke-width="2" opacity="0.4"/>
    <text x="350" y="230" text-anchor="middle" font-family="monospace" font-size="10" fill="#ff6b6b" opacity="0.6">DATASET</text>
    <!-- Poison needle -->
    <rect x="300" y="260" width="10" height="40" rx="2" fill="#ffd93d" opacity="0.8" transform="rotate(-15,305,280)"/>
    <circle cx="302" cy="262" r="4" fill="#ffd93d" opacity="0.9"/>
    <!-- Model -->
    <rect x="550" y="200" width="200" height="120" rx="10" fill="none" stroke="#a78bfa" stroke-width="2" opacity="0.4"/>
    <text x="650" y="230" text-anchor="middle" font-family="monospace" font-size="10" fill="#a78bfa" opacity="0.6">TRAINED MODEL</text>
    <!-- Backdoor trigger in model -->
    <circle cx="630" cy="280" r="8" fill="none" stroke="#ffd93d" stroke-width="1.5" opacity="0.6"/>
    <text x="630" y="283" text-anchor="middle" font-size="8" fill="#ffd93d" opacity="0.7">⚡</text>
  </g>
  <g stroke="#a78bfa" stroke-width="1.5" opacity="0.3">
    <line x1="450" y1="260" x2="550" y2="260"/>
  </g>
  <text x="600" y="140" text-anchor="middle" font-family="'Segoe UI','Helvetica Neue',Arial,sans-serif" font-size="34" font-weight="700" fill="#e6edf3" letter-spacing="1">Data Poisoning and</text>
  <text x="600" y="182" text-anchor="middle" font-family="'Segoe UI','Helvetica Neue',Arial,sans-serif" font-size="34" font-weight="700" fill="#e6edf3" letter-spacing="1">Model Backdoors</text>
  <text x="600" y="520" text-anchor="middle" font-family="'Segoe UI','Helvetica Neue',Arial,sans-serif" font-size="13" fill="#8b949e" letter-spacing="3">TRAINING-TIME ATTACKS · SUPPLY CHAIN</text>
  <line x1="420" y1="535" x2="780" y2="535" stroke="url(#g1)" stroke-width="2" opacity="0.4"/>
  <text x="1090" y="600" text-anchor="end" font-family="'Segoe UI','Helvetica Neue',Arial,sans-serif" font-size="11" fill="#484f58">ml-ke.github.io</text>
  <circle cx="1110" cy="607" r="3" fill="#ff6b6b" opacity="0.6"/>
</svg>