<svg xmlns="http://www.w3.org/2000/svg" viewBox="0 0 1200 630" width="1200" height="630">
  <defs>
    <linearGradient id="bg" x1="0%" y1="0%" x2="100%" y2="100%">
      <stop offset="0%" style="stop-color:#0d1117"/>
      <stop offset="50%" style="stop-color:#161b22"/>
      <stop offset="100%" style="stop-color:#1a1a2e"/>
    </linearGradient>
    <linearGradient id="g1" x1="0%" y1="0%" x2="100%" y2="100%">
      <stop offset="0%" style="stop-color:#6bcf7f"/>
      <stop offset="100%" style="stop-color:#00d2ff"/>
    </linearGradient>
    <filter id="glow">
      <feGaussianBlur stdDeviation="3" result="b"/>
      <feMerge><feMergeNode in="b"/><feMergeNode in="SourceGraphic"/></feMerge>
    </filter>
  </defs>
  <rect width="1200" height="630" fill="url(#bg)"/>
  <g opacity="0.03" stroke="#fff" stroke-width="0.5">
    <line x1="0" y1="70" x2="1200" y2="70"/><line x1="0" y1="140" x2="1200" y2="140"/>
    <line x1="0" y1="210" x2="1200" y2="210"/><line x1="0" y1="280" x2="1200" y2="280"/>
    <line x1="0" y1="350" x2="1200" y2="350"/><line x1="0" y1="420" x2="1200" y2="420"/>
    <line x1="0" y1="490" x2="1200" y2="490"/><line x1="0" y1="560" x2="1200" y2="560"/>
    <line x1="150" y1="0" x2="150" y2="630"/><line x1="300" y1="0" x2="300" y2="630"/>
    <line x1="450" y1="0" x2="450" y2="630"/><line x1="600" y1="0" x2="600" y2="630"/>
    <line x1="750" y1="0" x2="750" y2="630"/><line x1="900" y1="0" x2="900" y2="630"/>
    <line x1="1050" y1="0" x2="1050" y2="630"/>
  </g>
  
  <g filter="url(#glow)">
    <circle cx="600" cy="315" r="70" fill="none" stroke="url(#g1)" stroke-width="2" opacity="0.6"/>
    <circle cx="600" cy="315" r="15" fill="#6bcf7f" opacity="0.8"/>
    <circle cx="400" cy="220" r="10" fill="#00d2ff" opacity="0.7"/>
    <circle cx="800" cy="240" r="10" fill="#00d2ff" opacity="0.7"/>
    <circle cx="350" cy="400" r="10" fill="#ffd93d" opacity="0.7"/>
    <circle cx="750" cy="430" r="10" fill="#ffd93d" opacity="0.7"/>
    <circle cx="480" cy="160" r="8" fill="#6bcf7f" opacity="0.5"/>
    <circle cx="720" cy="170" r="8" fill="#6bcf7f" opacity="0.5"/>
    <circle cx="300" cy="300" r="8" fill="#ffd93d" opacity="0.5"/>
    <circle cx="850" cy="320" r="8" fill="#ffd93d" opacity="0.5"/>
    <circle cx="200" cy="150" r="4" fill="#00d2ff" opacity="0.3"/>
    <circle cx="950" cy="180" r="4" fill="#00d2ff" opacity="0.3"/>
  </g>
  <g stroke="#6bcf7f" stroke-width="1" opacity="0.15">
    <line x1="600" y1="315" x2="400" y2="220"/>
    <line x1="600" y1="315" x2="800" y2="240"/>
    <line x1="600" y1="315" x2="350" y2="400"/>
    <line x1="600" y1="315" x2="750" y2="430"/>
    <line x1="400" y1="220" x2="480" y2="160"/>
    <line x1="800" y1="240" x2="720" y2="170"/>
  </g>
  <text x="600" y="140" text-anchor="middle" font-family="'Segoe UI','Helvetica Neue',Arial,sans-serif" font-size="34" font-weight="700" fill="#e6edf3" letter-spacing="1">Building a Knowledge Graph</text>
  <text x="600" y="182" text-anchor="middle" font-family="'Segoe UI','Helvetica Neue',Arial,sans-serif" font-size="34" font-weight="700" fill="#e6edf3" letter-spacing="1">with Neo4j and Python</text>
  <text x="600" y="520" text-anchor="middle" font-family="'Segoe UI','Helvetica Neue',Arial,sans-serif" font-size="13" fill="#8b949e" letter-spacing="3">KNOWLEDGE GRAPHS · HANDS-ON TUTORIAL</text>
  <line x1="420" y1="535" x2="780" y2="535" stroke="url(#g1)" stroke-width="2" opacity="0.4"/>
  <text x="1090" y="600" text-anchor="end" font-family="'Segoe UI','Helvetica Neue',Arial,sans-serif" font-size="11" fill="#484f58">ml-ke.github.io</text>
  <circle cx="1110" cy="607" r="3" fill="#6bcf7f" opacity="0.6"/>
</svg>