<svg xmlns="http://www.w3.org/2000/svg" width="1200" height="630" viewBox="0 0 1200 630">
<defs>
<linearGradient id="bg" x1="0" y1="0" x2="1" y2="1"><stop offset="0" stop-color="#0d1117"/><stop offset="1" stop-color="#1a1a2e"/></linearGradient>
</defs>
<rect width="1200" height="630" fill="url(#bg)"/>
<line x1="0" y1="0" x2="0" y2="630" stroke="#ffffff" stroke-opacity="0.03"/>
<line x1="40" y1="0" x2="40" y2="630" stroke="#ffffff" stroke-opacity="0.03"/>
<line x1="80" y1="0" x2="80" y2="630" stroke="#ffffff" stroke-opacity="0.03"/>
<line x1="120" y1="0" x2="120" y2="630" stroke="#ffffff" stroke-opacity="0.03"/>
<line x1="160" y1="0" x2="160" y2="630" stroke="#ffffff" stroke-opacity="0.03"/>
<line x1="200" y1="0" x2="200" y2="630" stroke="#ffffff" stroke-opacity="0.03"/>
<line x1="240" y1="0" x2="240" y2="630" stroke="#ffffff" stroke-opacity="0.03"/>
<line x1="280" y1="0" x2="280" y2="630" stroke="#ffffff" stroke-opacity="0.03"/>
<line x1="320" y1="0" x2="320" y2="630" stroke="#ffffff" stroke-opacity="0.03"/>
<line x1="360" y1="0" x2="360" y2="630" stroke="#ffffff" stroke-opacity="0.03"/>
<line x1="400" y1="0" x2="400" y2="630" stroke="#ffffff" stroke-opacity="0.03"/>
<line x1="440" y1="0" x2="440" y2="630" stroke="#ffffff" stroke-opacity="0.03"/>
<line x1="480" y1="0" x2="480" y2="630" stroke="#ffffff" stroke-opacity="0.03"/>
<line x1="520" y1="0" x2="520" y2="630" stroke="#ffffff" stroke-opacity="0.03"/>
<line x1="560" y1="0" x2="560" y2="630" stroke="#ffffff" stroke-opacity="0.03"/>
<line x1="600" y1="0" x2="600" y2="630" stroke="#ffffff" stroke-opacity="0.03"/>
<line x1="640" y1="0" x2="640" y2="630" stroke="#ffffff" stroke-opacity="0.03"/>
<line x1="680" y1="0" x2="680" y2="630" stroke="#ffffff" stroke-opacity="0.03"/>
<line x1="720" y1="0" x2="720" y2="630" stroke="#ffffff" stroke-opacity="0.03"/>
<line x1="760" y1="0" x2="760" y2="630" stroke="#ffffff" stroke-opacity="0.03"/>
<line x1="800" y1="0" x2="800" y2="630" stroke="#ffffff" stroke-opacity="0.03"/>
<line x1="840" y1="0" x2="840" y2="630" stroke="#ffffff" stroke-opacity="0.03"/>
<line x1="880" y1="0" x2="880" y2="630" stroke="#ffffff" stroke-opacity="0.03"/>
<line x1="920" y1="0" x2="920" y2="630" stroke="#ffffff" stroke-opacity="0.03"/>
<line x1="960" y1="0" x2="960" y2="630" stroke="#ffffff" stroke-opacity="0.03"/>
<line x1="1000" y1="0" x2="1000" y2="630" stroke="#ffffff" stroke-opacity="0.03"/>
<line x1="1040" y1="0" x2="1040" y2="630" stroke="#ffffff" stroke-opacity="0.03"/>
<line x1="1080" y1="0" x2="1080" y2="630" stroke="#ffffff" stroke-opacity="0.03"/>
<line x1="1120" y1="0" x2="1120" y2="630" stroke="#ffffff" stroke-opacity="0.03"/>
<line x1="1160" y1="0" x2="1160" y2="630" stroke="#ffffff" stroke-opacity="0.03"/>
<line x1="0" y1="0" x2="1200" y2="0" stroke="#ffffff" stroke-opacity="0.03"/>
<line x1="0" y1="40" x2="1200" y2="40" stroke="#ffffff" stroke-opacity="0.03"/>
<line x1="0" y1="80" x2="1200" y2="80" stroke="#ffffff" stroke-opacity="0.03"/>
<line x1="0" y1="120" x2="1200" y2="120" stroke="#ffffff" stroke-opacity="0.03"/>
<line x1="0" y1="160" x2="1200" y2="160" stroke="#ffffff" stroke-opacity="0.03"/>
<line x1="0" y1="200" x2="1200" y2="200" stroke="#ffffff" stroke-opacity="0.03"/>
<line x1="0" y1="240" x2="1200" y2="240" stroke="#ffffff" stroke-opacity="0.03"/>
<line x1="0" y1="280" x2="1200" y2="280" stroke="#ffffff" stroke-opacity="0.03"/>
<line x1="0" y1="320" x2="1200" y2="320" stroke="#ffffff" stroke-opacity="0.03"/>
<line x1="0" y1="360" x2="1200" y2="360" stroke="#ffffff" stroke-opacity="0.03"/>
<line x1="0" y1="400" x2="1200" y2="400" stroke="#ffffff" stroke-opacity="0.03"/>
<line x1="0" y1="440" x2="1200" y2="440" stroke="#ffffff" stroke-opacity="0.03"/>
<line x1="0" y1="480" x2="1200" y2="480" stroke="#ffffff" stroke-opacity="0.03"/>
<line x1="0" y1="520" x2="1200" y2="520" stroke="#ffffff" stroke-opacity="0.03"/>
<line x1="0" y1="560" x2="1200" y2="560" stroke="#ffffff" stroke-opacity="0.03"/>
<line x1="0" y1="600" x2="1200" y2="600" stroke="#ffffff" stroke-opacity="0.03"/>
<text x="60" y="74" font-family="ui-sans-serif, -apple-system, 'Segoe UI', Roboto, Helvetica, Arial, sans-serif" font-size="36" font-weight="700" fill="#e6edf3">Thirty Times Smaller</text>
<text x="60" y="106" font-family="ui-sans-serif, -apple-system, 'Segoe UI', Roboto, Helvetica, Arial, sans-serif" font-size="17" fill="#8b949e">Auditing embedding compression before you ship it</text>
<rect x="60" y="138" width="500" height="372" rx="12" fill="#161b22" stroke="#30363d"/>
<rect x="640" y="138" width="500" height="372" rx="12" fill="#161b22" stroke="#30363d"/>
<text x="84" y="182" font-family="ui-monospace, SFMono-Regular, Menlo, Consolas, monospace" font-size="14" fill="#6bcf7f">float32</text>
<text x="536" y="182" text-anchor="end" font-family="ui-monospace, SFMono-Regular, Menlo, Consolas, monospace" font-size="13" fill="#8b949e">1,536 B/vec  ·  1.0x</text>
<rect x="84" y="196" width="32" height="46" rx="3" fill="#0d1117" stroke="#6bcf7f" stroke-opacity="0.55"/>
<text x="100.0" y="225" text-anchor="middle" font-family="ui-monospace, SFMono-Regular, Menlo, Consolas, monospace" font-size="9" fill="#6bcf7f" fill-opacity="0.9">0.42</text>
<rect x="118" y="196" width="32" height="46" rx="3" fill="#0d1117" stroke="#6bcf7f" stroke-opacity="0.55"/>
<text x="134.0" y="225" text-anchor="middle" font-family="ui-monospace, SFMono-Regular, Menlo, Consolas, monospace" font-size="9" fill="#6bcf7f" fill-opacity="0.9">-0.07</text>
<rect x="152" y="196" width="32" height="46" rx="3" fill="#0d1117" stroke="#6bcf7f" stroke-opacity="0.55"/>
<text x="168.0" y="225" text-anchor="middle" font-family="ui-monospace, SFMono-Regular, Menlo, Consolas, monospace" font-size="9" fill="#6bcf7f" fill-opacity="0.9">0.91</text>
<rect x="186" y="196" width="32" height="46" rx="3" fill="#0d1117" stroke="#6bcf7f" stroke-opacity="0.55"/>
<text x="202.0" y="225" text-anchor="middle" font-family="ui-monospace, SFMono-Regular, Menlo, Consolas, monospace" font-size="9" fill="#6bcf7f" fill-opacity="0.9">-0.33</text>
<rect x="220" y="196" width="32" height="46" rx="3" fill="#0d1117" stroke="#6bcf7f" stroke-opacity="0.55"/>
<text x="236.0" y="225" text-anchor="middle" font-family="ui-monospace, SFMono-Regular, Menlo, Consolas, monospace" font-size="9" fill="#6bcf7f" fill-opacity="0.9">0.18</text>
<rect x="254" y="196" width="32" height="46" rx="3" fill="#0d1117" stroke="#6bcf7f" stroke-opacity="0.55"/>
<text x="270.0" y="225" text-anchor="middle" font-family="ui-monospace, SFMono-Regular, Menlo, Consolas, monospace" font-size="9" fill="#6bcf7f" fill-opacity="0.9">-0.55</text>
<rect x="288" y="196" width="32" height="46" rx="3" fill="#0d1117" stroke="#6bcf7f" stroke-opacity="0.55"/>
<text x="304.0" y="225" text-anchor="middle" font-family="ui-monospace, SFMono-Regular, Menlo, Consolas, monospace" font-size="9" fill="#6bcf7f" fill-opacity="0.9">0.72</text>
<rect x="322" y="196" width="32" height="46" rx="3" fill="#0d1117" stroke="#6bcf7f" stroke-opacity="0.55"/>
<text x="338.0" y="225" text-anchor="middle" font-family="ui-monospace, SFMono-Regular, Menlo, Consolas, monospace" font-size="9" fill="#6bcf7f" fill-opacity="0.9">-0.11</text>
<rect x="356" y="196" width="32" height="46" rx="3" fill="#0d1117" stroke="#6bcf7f" stroke-opacity="0.55"/>
<text x="372.0" y="225" text-anchor="middle" font-family="ui-monospace, SFMono-Regular, Menlo, Consolas, monospace" font-size="9" fill="#6bcf7f" fill-opacity="0.9">0.29</text>
<rect x="390" y="196" width="32" height="46" rx="3" fill="#0d1117" stroke="#6bcf7f" stroke-opacity="0.55"/>
<text x="406.0" y="225" text-anchor="middle" font-family="ui-monospace, SFMono-Regular, Menlo, Consolas, monospace" font-size="9" fill="#6bcf7f" fill-opacity="0.9">-0.84</text>
<rect x="424" y="196" width="32" height="46" rx="3" fill="#0d1117" stroke="#6bcf7f" stroke-opacity="0.55"/>
<text x="440.0" y="225" text-anchor="middle" font-family="ui-monospace, SFMono-Regular, Menlo, Consolas, monospace" font-size="9" fill="#6bcf7f" fill-opacity="0.9">0.06</text>
<rect x="458" y="196" width="32" height="46" rx="3" fill="#0d1117" stroke="#6bcf7f" stroke-opacity="0.55"/>
<text x="474.0" y="225" text-anchor="middle" font-family="ui-monospace, SFMono-Regular, Menlo, Consolas, monospace" font-size="9" fill="#6bcf7f" fill-opacity="0.9">0.47</text>
<rect x="492" y="196" width="32" height="46" rx="3" fill="#0d1117" stroke="#6bcf7f" stroke-opacity="0.55"/>
<text x="508.0" y="225" text-anchor="middle" font-family="ui-monospace, SFMono-Regular, Menlo, Consolas, monospace" font-size="9" fill="#6bcf7f" fill-opacity="0.9">-0.19</text>
<rect x="526" y="196" width="32" height="46" rx="3" fill="#0d1117" stroke="#6bcf7f" stroke-opacity="0.55"/>
<text x="542.0" y="225" text-anchor="middle" font-family="ui-monospace, SFMono-Regular, Menlo, Consolas, monospace" font-size="9" fill="#6bcf7f" fill-opacity="0.9">0.63</text>
<text x="84" y="290" font-family="ui-monospace, SFMono-Regular, Menlo, Consolas, monospace" font-size="14" fill="#00d2ff">int8  (scalar)</text>
<text x="536" y="290" text-anchor="end" font-family="ui-monospace, SFMono-Regular, Menlo, Consolas, monospace" font-size="13" fill="#8b949e">388 B/vec  ·  4.0x</text>
<rect x="84" y="304" width="68" height="46" rx="3" fill="#0d1117" stroke="#00d2ff" stroke-opacity="0.55"/>
<text x="118.0" y="333" text-anchor="middle" font-family="ui-monospace, SFMono-Regular, Menlo, Consolas, monospace" font-size="9" fill="#00d2ff" fill-opacity="0.9">+53</text>
<rect x="154" y="304" width="68" height="46" rx="3" fill="#0d1117" stroke="#00d2ff" stroke-opacity="0.55"/>
<text x="188.0" y="333" text-anchor="middle" font-family="ui-monospace, SFMono-Regular, Menlo, Consolas, monospace" font-size="9" fill="#00d2ff" fill-opacity="0.9">-8</text>
<rect x="224" y="304" width="68" height="46" rx="3" fill="#0d1117" stroke="#00d2ff" stroke-opacity="0.55"/>
<text x="258.0" y="333" text-anchor="middle" font-family="ui-monospace, SFMono-Regular, Menlo, Consolas, monospace" font-size="9" fill="#00d2ff" fill-opacity="0.9">+91</text>
<rect x="294" y="304" width="68" height="46" rx="3" fill="#0d1117" stroke="#00d2ff" stroke-opacity="0.55"/>
<text x="328.0" y="333" text-anchor="middle" font-family="ui-monospace, SFMono-Regular, Menlo, Consolas, monospace" font-size="9" fill="#00d2ff" fill-opacity="0.9">-42</text>
<rect x="364" y="304" width="68" height="46" rx="3" fill="#0d1117" stroke="#00d2ff" stroke-opacity="0.55"/>
<text x="398.0" y="333" text-anchor="middle" font-family="ui-monospace, SFMono-Regular, Menlo, Consolas, monospace" font-size="9" fill="#00d2ff" fill-opacity="0.9">+22</text>
<rect x="434" y="304" width="68" height="46" rx="3" fill="#0d1117" stroke="#00d2ff" stroke-opacity="0.55"/>
<text x="468.0" y="333" text-anchor="middle" font-family="ui-monospace, SFMono-Regular, Menlo, Consolas, monospace" font-size="9" fill="#00d2ff" fill-opacity="0.9">-70</text>
<rect x="504" y="304" width="68" height="46" rx="3" fill="#0d1117" stroke="#00d2ff" stroke-opacity="0.55"/>
<text x="538.0" y="333" text-anchor="middle" font-family="ui-monospace, SFMono-Regular, Menlo, Consolas, monospace" font-size="9" fill="#00d2ff" fill-opacity="0.9">+81</text>
<text x="84" y="398" font-family="ui-monospace, SFMono-Regular, Menlo, Consolas, monospace" font-size="14" fill="#a78bfa">1-bit  (packed)</text>
<text x="536" y="398" text-anchor="end" font-family="ui-monospace, SFMono-Regular, Menlo, Consolas, monospace" font-size="13" fill="#8b949e">52 B/vec  ·  29.5x</text>
<rect x="84" y="412" width="17" height="46" rx="3" fill="#0d1117" stroke="#a78bfa" stroke-opacity="0.55"/>
<text x="92.5" y="441" text-anchor="middle" font-family="ui-monospace, SFMono-Regular, Menlo, Consolas, monospace" font-size="11" fill="#a78bfa" fill-opacity="0.9">1</text>
<rect x="103" y="412" width="17" height="46" rx="3" fill="#0d1117" stroke="#a78bfa" stroke-opacity="0.55"/>
<text x="111.5" y="441" text-anchor="middle" font-family="ui-monospace, SFMono-Regular, Menlo, Consolas, monospace" font-size="11" fill="#a78bfa" fill-opacity="0.9">0</text>
<rect x="122" y="412" width="17" height="46" rx="3" fill="#0d1117" stroke="#a78bfa" stroke-opacity="0.55"/>
<text x="130.5" y="441" text-anchor="middle" font-family="ui-monospace, SFMono-Regular, Menlo, Consolas, monospace" font-size="11" fill="#a78bfa" fill-opacity="0.9">1</text>
<rect x="141" y="412" width="17" height="46" rx="3" fill="#0d1117" stroke="#a78bfa" stroke-opacity="0.55"/>
<text x="149.5" y="441" text-anchor="middle" font-family="ui-monospace, SFMono-Regular, Menlo, Consolas, monospace" font-size="11" fill="#a78bfa" fill-opacity="0.9">1</text>
<rect x="160" y="412" width="17" height="46" rx="3" fill="#0d1117" stroke="#a78bfa" stroke-opacity="0.55"/>
<text x="168.5" y="441" text-anchor="middle" font-family="ui-monospace, SFMono-Regular, Menlo, Consolas, monospace" font-size="11" fill="#a78bfa" fill-opacity="0.9">0</text>
<rect x="179" y="412" width="17" height="46" rx="3" fill="#0d1117" stroke="#a78bfa" stroke-opacity="0.55"/>
<text x="187.5" y="441" text-anchor="middle" font-family="ui-monospace, SFMono-Regular, Menlo, Consolas, monospace" font-size="11" fill="#a78bfa" fill-opacity="0.9">1</text>
<rect x="198" y="412" width="17" height="46" rx="3" fill="#0d1117" stroke="#a78bfa" stroke-opacity="0.55"/>
<text x="206.5" y="441" text-anchor="middle" font-family="ui-monospace, SFMono-Regular, Menlo, Consolas, monospace" font-size="11" fill="#a78bfa" fill-opacity="0.9">1</text>
<rect x="217" y="412" width="17" height="46" rx="3" fill="#0d1117" stroke="#a78bfa" stroke-opacity="0.55"/>
<text x="225.5" y="441" text-anchor="middle" font-family="ui-monospace, SFMono-Regular, Menlo, Consolas, monospace" font-size="11" fill="#a78bfa" fill-opacity="0.9">0</text>
<rect x="236" y="412" width="17" height="46" rx="3" fill="#0d1117" stroke="#a78bfa" stroke-opacity="0.55"/>
<text x="244.5" y="441" text-anchor="middle" font-family="ui-monospace, SFMono-Regular, Menlo, Consolas, monospace" font-size="11" fill="#a78bfa" fill-opacity="0.9">0</text>
<rect x="255" y="412" width="17" height="46" rx="3" fill="#0d1117" stroke="#a78bfa" stroke-opacity="0.55"/>
<text x="263.5" y="441" text-anchor="middle" font-family="ui-monospace, SFMono-Regular, Menlo, Consolas, monospace" font-size="11" fill="#a78bfa" fill-opacity="0.9">1</text>
<rect x="274" y="412" width="17" height="46" rx="3" fill="#0d1117" stroke="#a78bfa" stroke-opacity="0.55"/>
<text x="282.5" y="441" text-anchor="middle" font-family="ui-monospace, SFMono-Regular, Menlo, Consolas, monospace" font-size="11" fill="#a78bfa" fill-opacity="0.9">0</text>
<rect x="293" y="412" width="17" height="46" rx="3" fill="#0d1117" stroke="#a78bfa" stroke-opacity="0.55"/>
<text x="301.5" y="441" text-anchor="middle" font-family="ui-monospace, SFMono-Regular, Menlo, Consolas, monospace" font-size="11" fill="#a78bfa" fill-opacity="0.9">1</text>
<rect x="312" y="412" width="17" height="46" rx="3" fill="#0d1117" stroke="#a78bfa" stroke-opacity="0.55"/>
<text x="320.5" y="441" text-anchor="middle" font-family="ui-monospace, SFMono-Regular, Menlo, Consolas, monospace" font-size="11" fill="#a78bfa" fill-opacity="0.9">1</text>
<rect x="331" y="412" width="17" height="46" rx="3" fill="#0d1117" stroke="#a78bfa" stroke-opacity="0.55"/>
<text x="339.5" y="441" text-anchor="middle" font-family="ui-monospace, SFMono-Regular, Menlo, Consolas, monospace" font-size="11" fill="#a78bfa" fill-opacity="0.9">1</text>
<rect x="350" y="412" width="17" height="46" rx="3" fill="#0d1117" stroke="#a78bfa" stroke-opacity="0.55"/>
<text x="358.5" y="441" text-anchor="middle" font-family="ui-monospace, SFMono-Regular, Menlo, Consolas, monospace" font-size="11" fill="#a78bfa" fill-opacity="0.9">0</text>
<rect x="369" y="412" width="17" height="46" rx="3" fill="#0d1117" stroke="#a78bfa" stroke-opacity="0.55"/>
<text x="377.5" y="441" text-anchor="middle" font-family="ui-monospace, SFMono-Regular, Menlo, Consolas, monospace" font-size="11" fill="#a78bfa" fill-opacity="0.9">1</text>
<rect x="388" y="412" width="17" height="46" rx="3" fill="#0d1117" stroke="#a78bfa" stroke-opacity="0.55"/>
<text x="396.5" y="441" text-anchor="middle" font-family="ui-monospace, SFMono-Regular, Menlo, Consolas, monospace" font-size="11" fill="#a78bfa" fill-opacity="0.9">0</text>
<rect x="407" y="412" width="17" height="46" rx="3" fill="#0d1117" stroke="#a78bfa" stroke-opacity="0.55"/>
<text x="415.5" y="441" text-anchor="middle" font-family="ui-monospace, SFMono-Regular, Menlo, Consolas, monospace" font-size="11" fill="#a78bfa" fill-opacity="0.9">1</text>
<rect x="426" y="412" width="17" height="46" rx="3" fill="#0d1117" stroke="#a78bfa" stroke-opacity="0.55"/>
<text x="434.5" y="441" text-anchor="middle" font-family="ui-monospace, SFMono-Regular, Menlo, Consolas, monospace" font-size="11" fill="#a78bfa" fill-opacity="0.9">1</text>
<rect x="445" y="412" width="17" height="46" rx="3" fill="#0d1117" stroke="#a78bfa" stroke-opacity="0.55"/>
<text x="453.5" y="441" text-anchor="middle" font-family="ui-monospace, SFMono-Regular, Menlo, Consolas, monospace" font-size="11" fill="#a78bfa" fill-opacity="0.9">0</text>
<rect x="464" y="412" width="17" height="46" rx="3" fill="#0d1117" stroke="#a78bfa" stroke-opacity="0.55"/>
<text x="472.5" y="441" text-anchor="middle" font-family="ui-monospace, SFMono-Regular, Menlo, Consolas, monospace" font-size="11" fill="#a78bfa" fill-opacity="0.9">1</text>
<rect x="483" y="412" width="17" height="46" rx="3" fill="#0d1117" stroke="#a78bfa" stroke-opacity="0.55"/>
<text x="491.5" y="441" text-anchor="middle" font-family="ui-monospace, SFMono-Regular, Menlo, Consolas, monospace" font-size="11" fill="#a78bfa" fill-opacity="0.9">0</text>
<rect x="502" y="412" width="17" height="46" rx="3" fill="#0d1117" stroke="#a78bfa" stroke-opacity="0.55"/>
<text x="510.5" y="441" text-anchor="middle" font-family="ui-monospace, SFMono-Regular, Menlo, Consolas, monospace" font-size="11" fill="#a78bfa" fill-opacity="0.9">1</text>
<rect x="521" y="412" width="17" height="46" rx="3" fill="#0d1117" stroke="#a78bfa" stroke-opacity="0.55"/>
<text x="529.5" y="441" text-anchor="middle" font-family="ui-monospace, SFMono-Regular, Menlo, Consolas, monospace" font-size="11" fill="#a78bfa" fill-opacity="0.9">1</text>
<rect x="540" y="412" width="17" height="46" rx="3" fill="#0d1117" stroke="#a78bfa" stroke-opacity="0.55"/>
<text x="548.5" y="441" text-anchor="middle" font-family="ui-monospace, SFMono-Regular, Menlo, Consolas, monospace" font-size="11" fill="#a78bfa" fill-opacity="0.9">0</text>
<rect x="559" y="412" width="17" height="46" rx="3" fill="#0d1117" stroke="#a78bfa" stroke-opacity="0.55"/>
<text x="567.5" y="441" text-anchor="middle" font-family="ui-monospace, SFMono-Regular, Menlo, Consolas, monospace" font-size="11" fill="#a78bfa" fill-opacity="0.9">1</text>
<text x="84" y="484" font-family="ui-sans-serif, -apple-system, 'Segoe UI', Roboto, Helvetica, Arial, sans-serif" font-size="13" fill="#8b949e">same vector, three precisions - 384 dims of a real embedding</text>
<text x="664" y="172" font-family="ui-monospace, SFMono-Regular, Menlo, Consolas, monospace" font-size="13" fill="#e6edf3">MEASURED RECALL@10  ·  10,000 DOCS  ·  384 DIMS</text>
<text x="664" y="206" font-family="ui-monospace, SFMono-Regular, Menlo, Consolas, monospace" font-size="13" fill="#c9d1d9">float32  (exact)</text>
<text x="1116" y="206" text-anchor="end" font-family="ui-monospace, SFMono-Regular, Menlo, Consolas, monospace" font-size="13" fill="#6bcf7f">1.000</text>
<rect x="664" y="216" width="300" height="8" rx="4" fill="#21262d"/>
<rect x="664" y="216" width="300" height="8" rx="4" fill="#6bcf7f"/>
<text x="664" y="268" font-family="ui-monospace, SFMono-Regular, Menlo, Consolas, monospace" font-size="13" fill="#c9d1d9">int8</text>
<text x="1116" y="268" text-anchor="end" font-family="ui-monospace, SFMono-Regular, Menlo, Consolas, monospace" font-size="13" fill="#00d2ff">0.965</text>
<rect x="664" y="278" width="300" height="8" rx="4" fill="#21262d"/>
<rect x="664" y="278" width="290" height="8" rx="4" fill="#00d2ff"/>
<text x="664" y="330" font-family="ui-monospace, SFMono-Regular, Menlo, Consolas, monospace" font-size="13" fill="#c9d1d9">1-bit packed</text>
<text x="1116" y="330" text-anchor="end" font-family="ui-monospace, SFMono-Regular, Menlo, Consolas, monospace" font-size="13" fill="#ff6b6b">0.516</text>
<rect x="664" y="340" width="300" height="8" rx="4" fill="#21262d"/>
<rect x="664" y="340" width="155" height="8" rx="4" fill="#ff6b6b"/>
<text x="664" y="392" font-family="ui-monospace, SFMono-Regular, Menlo, Consolas, monospace" font-size="13" fill="#c9d1d9">1-bit + 5x shortlist</text>
<text x="1116" y="392" text-anchor="end" font-family="ui-monospace, SFMono-Regular, Menlo, Consolas, monospace" font-size="13" fill="#a78bfa">1.000</text>
<rect x="664" y="402" width="300" height="8" rx="4" fill="#21262d"/>
<rect x="664" y="402" width="300" height="8" rx="4" fill="#a78bfa"/>
<line x1="664" y1="438" x2="1116" y2="438" stroke="#30363d"/>
<text x="664" y="464" font-family="ui-monospace, SFMono-Regular, Menlo, Consolas, monospace" font-size="12" fill="#ffd93d">oversampling to reach shortlist recall 0.99</text>
<text x="664" y="486" font-family="ui-monospace, SFMono-Regular, Menlo, Consolas, monospace" font-size="12" fill="#c9d1d9">5x at 10k docs   ·   25x at 100k docs</text>
<text x="60" y="552" font-family="ui-sans-serif, -apple-system, 'Segoe UI', Roboto, Helvetica, Arial, sans-serif" font-size="17" fill="#e6edf3">The 32x memory claim is arithmetic. The recall and latency claims are properties of your data.</text>
<text x="60" y="582" font-family="ui-sans-serif, -apple-system, 'Segoe UI', Roboto, Helvetica, Arial, sans-serif" font-size="15" fill="#8b949e">A numpy audit you can point at your own embeddings - and the shortlist size it prints for you.</text>
<text x="1140" y="612" text-anchor="end" font-family="ui-sans-serif, -apple-system, 'Segoe UI', Roboto, Helvetica, Arial, sans-serif" font-size="13" fill="#484f58">ml-ke.github.io</text>
</svg>
