<svg xmlns="http://www.w3.org/2000/svg" viewBox="0 0 1200 630" width="1200" height="630">
  <defs>
    <linearGradient id="bg" x1="0%" y1="0%" x2="100%" y2="100%">
      <stop offset="0%" style="stop-color:#0d1117"/>
      <stop offset="50%" style="stop-color:#0f172a"/>
      <stop offset="100%" style="stop-color:#1a1a2e"/>
    </linearGradient>
    <filter id="glow">
      <feGaussianBlur stdDeviation="3" result="b"/>
      <feMerge><feMergeNode in="b"/><feMergeNode in="SourceGraphic"/></feMerge>
    </filter>
  </defs>
  <rect width="1200" height="630" fill="url(#bg)"/>
  <g opacity="0.03" stroke="#fff" stroke-width="0.5">
    <line x1="0" y1="70" x2="1200" y2="70"/><line x1="0" y1="140" x2="1200" y2="140"/>
    <line x1="0" y1="210" x2="1200" y2="210"/><line x1="0" y1="280" x2="1200" y2="280"/>
    <line x1="0" y1="350" x2="1200" y2="350"/><line x1="0" y1="420" x2="1200" y2="420"/>
    <line x1="0" y1="490" x2="1200" y2="490"/><line x1="0" y1="560" x2="1200" y2="560"/>
    <line x1="150" y1="0" x2="150" y2="630"/><line x1="300" y1="0" x2="300" y2="630"/>
    <line x1="450" y1="0" x2="450" y2="630"/><line x1="600" y1="0" x2="600" y2="630"/>
    <line x1="750" y1="0" x2="750" y2="630"/><line x1="900" y1="0" x2="900" y2="630"/>
    <line x1="1050" y1="0" x2="1050" y2="630"/>
  </g>
  <!-- Audio waveform (left) -->
  <g filter="url(#glow)">
    <path d="M 150 340 Q 180 280 200 340 Q 220 400 240 340 Q 260 280 280 340 Q 300 400 320 340" fill="none" stroke="#00d2ff" stroke-width="2.5" opacity="0.6"/>
    <path d="M 170 340 Q 190 310 210 340 Q 230 370 250 340 Q 270 310 290 340" fill="none" stroke="#00d2ff" stroke-width="1" opacity="0.3"/>
    <text x="235" y="380" text-anchor="middle" font-family="monospace" font-size="8" fill="#00d2ff" opacity="0.6">AUDIO</text>
  </g>
  <!-- Video play button (center) -->
  <g filter="url(#glow)">
    <rect x="450" y="270" width="100" height="80" rx="6" fill="none" stroke="#6bcf7f" stroke-width="2" opacity="0.5"/>
    <polygon points="480,290 480,330 510,310" fill="#6bcf7f" opacity="0.5"/>
    <text x="500" y="380" text-anchor="middle" font-family="monospace" font-size="8" fill="#6bcf7f" opacity="0.6">VIDEO</text>
    <!-- Video frame content suggestion -->
    <rect x="460" y="278" width="80" height="15" rx="2" fill="#6bcf7f" opacity="0.08"/>
    <line x1="465" y1="283" x2="535" y2="283" stroke="#6bcf7f" stroke-width="0.5" opacity="0.2"/>
    <line x1="465" y1="288" x2="520" y2="288" stroke="#6bcf7f" stroke-width="0.5" opacity="0.2"/>
  </g>
  <!-- Text characters (right) -->
  <g filter="url(#glow)">
    <text x="800" y="290" font-family="monospace" font-size="28" fill="#a78bfa" opacity="0.4">T</text>
    <text x="830" y="290" font-family="monospace" font-size="28" fill="#a78bfa" opacity="0.3">E</text>
    <text x="860" y="290" font-family="monospace" font-size="28" fill="#a78bfa" opacity="0.4">X</text>
    <text x="890" y="290" font-family="monospace" font-size="28" fill="#a78bfa" opacity="0.3">T</text>
    <text x="800" y="340" font-family="monospace" font-size="12" fill="#a78bfa" opacity="0.3">"invisible</text>
    <text x="800" y="360" font-family="monospace" font-size="12" fill="#a78bfa" opacity="0.3"> overrides"</text>
  </g>
  <!-- Attack chain linking them -->
  <g filter="url(#glow)">
    <path d="M 320 330 Q 380 310 440 310" fill="none" stroke="#ff6b6b" stroke-width="2" opacity="0.6" stroke-dasharray="6,4"/>
    <path d="M 560 310 Q 640 310 700 340 Q 740 350 790 320" fill="none" stroke="#ff6b6b" stroke-width="2" opacity="0.6" stroke-dasharray="6,4"/>
    <!-- Attack label -->
    <text x="600" y="240" text-anchor="middle" font-family="monospace" font-size="9" fill="#ff6b6b" opacity="0.7">CROSS-MODAL ATTACK CHAIN</text>
  </g>
  <!-- Hidden injection indicators -->
  <g filter="url(#glow)" opacity="0.4">
    <text x="235" y="400" font-family="monospace" font-size="7" fill="#ff6b6b">🔇 ultrasonic command</text>
    <text x="500" y="400" font-family="monospace" font-size="7" fill="#ff6b6b">📷 frame text overlay</text>
    <text x="870" y="390" font-family="monospace" font-size="7" fill="#ff6b6b">🔤 prompt in plain sight</text>
  </g>
  <text x="600" y="125" text-anchor="middle" font-family="'Segoe UI','Helvetica Neue',Arial,sans-serif" font-size="34" font-weight="700" fill="#e6edf3" letter-spacing="1">Real-Time Multimodal</text>
  <text x="600" y="167" text-anchor="middle" font-family="'Segoe UI','Helvetica Neue',Arial,sans-serif" font-size="34" font-weight="700" fill="#e6edf3" letter-spacing="1">Security: Audio/Video Attacks</text>
  <text x="600" y="530" text-anchor="middle" font-family="'Segoe UI','Helvetica Neue',Arial,sans-serif" font-size="13" fill="#8b949e" letter-spacing="3">VOICE INJECTION · VIDEO PROMPTS · OMNIMODAL</text>
  <line x1="420" y1="545" x2="780" y2="545" stroke="#00d2ff" stroke-width="2" opacity="0.4"/>
  <text x="1090" y="600" text-anchor="end" font-family="'Segoe UI','Helvetica Neue',Arial,sans-serif" font-size="11" fill="#484f58">ml-ke.github.io</text>
  <circle cx="1110" cy="607" r="3" fill="#00d2ff" opacity="0.6"/>
</svg>