<svg xmlns="http://www.w3.org/2000/svg" viewBox="0 0 1200 630" width="1200" height="630">
  <defs>
    <linearGradient id="bg" x1="0%" y1="0%" x2="100%" y2="100%">
      <stop offset="0%" style="stop-color:#0d1117"/>
      <stop offset="50%" style="stop-color:#161b22"/>
      <stop offset="100%" style="stop-color:#1a1a2e"/>
    </linearGradient>
    <linearGradient id="g1" x1="0%" y1="0%" x2="100%" y2="100%">
      <stop offset="0%" style="stop-color:#ffd93d"/>
      <stop offset="100%" style="stop-color:#ff6b6b"/>
    </linearGradient>
    <filter id="glow">
      <feGaussianBlur stdDeviation="3" result="b"/>
      <feMerge><feMergeNode in="b"/><feMergeNode in="SourceGraphic"/></feMerge>
    </filter>
  </defs>
  <rect width="1200" height="630" fill="url(#bg)"/>
  <g opacity="0.03" stroke="#fff" stroke-width="0.5">
    <line x1="0" y1="70" x2="1200" y2="70"/><line x1="0" y1="140" x2="1200" y2="140"/>
    <line x1="0" y1="210" x2="1200" y2="210"/><line x1="0" y1="280" x2="1200" y2="280"/>
    <line x1="0" y1="350" x2="1200" y2="350"/><line x1="0" y1="420" x2="1200" y2="420"/>
    <line x1="0" y1="490" x2="1200" y2="490"/><line x1="0" y1="560" x2="1200" y2="560"/>
    <line x1="150" y1="0" x2="150" y2="630"/><line x1="300" y1="0" x2="300" y2="630"/>
    <line x1="450" y1="0" x2="450" y2="630"/><line x1="600" y1="0" x2="600" y2="630"/>
    <line x1="750" y1="0" x2="750" y2="630"/><line x1="900" y1="0" x2="900" y2="630"/>
    <line x1="1050" y1="0" x2="1050" y2="630"/>
  </g>
  
  <g filter="url(#glow)">
    <rect x="250" y="200" width="180" height="80" rx="6" fill="none" stroke="#ffd93d" stroke-width="2" opacity="0.5"/>
    <rect x="270" y="220" width="60" height="40" rx="4" fill="#ffd93d" opacity="0.3"/>
    <rect x="340" y="220" width="70" height="40" rx="4" fill="#ff6b6b" opacity="0.3"/>
    <rect x="550" y="200" width="180" height="80" rx="6" fill="none" stroke="#ff6b6b" stroke-width="2" opacity="0.5"/>
    <rect x="570" y="220" width="60" height="40" rx="4" fill="#ff6b6b" opacity="0.3"/>
    <rect x="640" y="220" width="70" height="40" rx="4" fill="#00d2ff" opacity="0.3"/>
    <rect x="750" y="320" width="180" height="80" rx="6" fill="none" stroke="#00d2ff" stroke-width="2" opacity="0.5"/>
    <rect x="770" y="340" width="140" height="40" rx="4" fill="#00d2ff" opacity="0.3"/>
    <text x="340" y="245" text-anchor="middle" font-family="monospace" font-size="10" fill="#e6edf3" opacity="0.6">DB</text>
    <text x="375" y="245" text-anchor="middle" font-family="monospace" font-size="10" fill="#e6edf3" opacity="0.6">CACHE</text>
    <text x="600" y="245" text-anchor="middle" font-family="monospace" font-size="10" fill="#e6edf3" opacity="0.6">API</text>
    <text x="675" y="245" text-anchor="middle" font-family="monospace" font-size="10" fill="#e6edf3" opacity="0.6">INDEX</text>
    <text x="840" y="362" text-anchor="middle" font-family="monospace" font-size="10" fill="#e6edf3" opacity="0.6">QUERY ENGINE</text>
  </g>
  <g stroke="#ffd93d" stroke-width="1.5" opacity="0.2">
    <line x1="430" y1="240" x2="550" y2="240"/>
    <line x1="730" y1="240" x2="840" y2="340"/>
  </g>
  <text x="600" y="140" text-anchor="middle" font-family="'Segoe UI','Helvetica Neue',Arial,sans-serif" font-size="34" font-weight="700" fill="#e6edf3" letter-spacing="1">Knowledge Graphs</text>
  <text x="600" y="182" text-anchor="middle" font-family="'Segoe UI','Helvetica Neue',Arial,sans-serif" font-size="34" font-weight="700" fill="#e6edf3" letter-spacing="1">in Production</text>
  <text x="600" y="520" text-anchor="middle" font-family="'Segoe UI','Helvetica Neue',Arial,sans-serif" font-size="13" fill="#8b949e" letter-spacing="3">SCALING · STORAGE · OPTIMIZATION</text>
  <line x1="420" y1="535" x2="780" y2="535" stroke="url(#g1)" stroke-width="2" opacity="0.4"/>
  <text x="1090" y="600" text-anchor="end" font-family="'Segoe UI','Helvetica Neue',Arial,sans-serif" font-size="11" fill="#484f58">ml-ke.github.io</text>
  <circle cx="1110" cy="607" r="3" fill="#ffd93d" opacity="0.6"/>
</svg>