<svg xmlns="http://www.w3.org/2000/svg" viewBox="0 0 1200 630" width="1200" height="630">
  <defs>
    <linearGradient id="bg" x1="0%" y1="0%" x2="100%" y2="100%">
      <stop offset="0%" style="stop-color:#0d1117"/>
      <stop offset="50%" style="stop-color:#0f172a"/>
      <stop offset="100%" style="stop-color:#1a1a2e"/>
    </linearGradient>
    <filter id="glow">
      <feGaussianBlur stdDeviation="3" result="b"/>
      <feMerge><feMergeNode in="b"/><feMergeNode in="SourceGraphic"/></feMerge>
    </filter>
  </defs>
  <rect width="1200" height="630" fill="url(#bg)"/>
  <g opacity="0.03" stroke="#fff" stroke-width="0.5">
    <line x1="0" y1="70" x2="1200" y2="70"/><line x1="0" y1="140" x2="1200" y2="140"/>
    <line x1="0" y1="210" x2="1200" y2="210"/><line x1="0" y1="280" x2="1200" y2="280"/>
    <line x1="0" y1="350" x2="1200" y2="350"/><line x1="0" y1="420" x2="1200" y2="420"/>
    <line x1="0" y1="490" x2="1200" y2="490"/><line x1="0" y1="560" x2="1200" y2="560"/>
    <line x1="150" y1="0" x2="150" y2="630"/><line x1="300" y1="0" x2="300" y2="630"/>
    <line x1="450" y1="0" x2="450" y2="630"/><line x1="600" y1="0" x2="600" y2="630"/>
    <line x1="750" y1="0" x2="750" y2="630"/><line x1="900" y1="0" x2="900" y2="630"/>
    <line x1="1050" y1="0" x2="1050" y2="630"/>
  </g>
  <!-- Flask icon -->
  <g filter="url(#glow)">
    <path d="M 520 200 L 520 280 Q 520 340 460 400 L 460 420 Q 460 440 480 440 L 720 440 Q 740 440 740 420 L 740 400 Q 680 340 680 280 L 680 200" fill="none" stroke="#6bcf7f" stroke-width="2" opacity="0.4"/>
    <!-- Liquid inside flask -->
    <path d="M 480 420 Q 520 400 600 400 Q 680 400 720 420 L 720 440 L 480 440 Z" fill="#6bcf7f" opacity="0.12"/>
    <!-- DNA helix inside -->
    <path d="M 540 350 Q 570 370 560 390" fill="none" stroke="#6bcf7f" stroke-width="1.5" opacity="0.5"/>
    <path d="M 660 350 Q 630 370 640 390" fill="none" stroke="#6bcf7f" stroke-width="1.5" opacity="0.5"/>
    <path d="M 560 310 Q 590 330 580 350" fill="none" stroke="#6bcf7f" stroke-width="1.5" opacity="0.4"/>
    <path d="M 640 310 Q 610 330 620 350" fill="none" stroke="#6bcf7f" stroke-width="1.5" opacity="0.4"/>
    <line x1="540" y1="350" x2="660" y2="350" stroke="#6bcf7f" stroke-width="1" opacity="0.3"/>
    <line x1="560" y1="390" x2="640" y2="390" stroke="#6bcf7f" stroke-width="1" opacity="0.3"/>
    <!-- Bubbles -->
    <circle cx="580" cy="380" r="4" fill="#6bcf7f" opacity="0.2"/>
    <circle cx="620" cy="370" r="3" fill="#6bcf7f" opacity="0.2"/>
    <circle cx="600" cy="390" r="5" fill="#6bcf7f" opacity="0.15"/>
  </g>
  <!-- Shield overlaid -->
  <g filter="url(#glow)">
    <path d="M 600 180 L 700 220 L 700 300 Q 700 380 600 420 Q 500 380 500 300 L 500 220 Z" fill="none" stroke="#00d2ff" stroke-width="2" opacity="0.35"/>
    <path d="M 600 210 L 660 235 L 660 290 Q 660 340 600 370 Q 540 340 540 290 L 540 235 Z" fill="none" stroke="#00d2ff" stroke-width="1" opacity="0.2"/>
    <text x="600" y="305" text-anchor="middle" font-family="monospace" font-size="14" fill="#00d2ff" opacity="0.5">✓</text>
  </g>
  <text x="600" y="125" text-anchor="middle" font-family="'Segoe UI','Helvetica Neue',Arial,sans-serif" font-size="34" font-weight="700" fill="#e6edf3" letter-spacing="1">Guardrails for Autonomous</text>
  <text x="600" y="167" text-anchor="middle" font-family="'Segoe UI','Helvetica Neue',Arial,sans-serif" font-size="34" font-weight="700" fill="#e6edf3" letter-spacing="1">AI Research Pipelines</text>
  <text x="600" y="530" text-anchor="middle" font-family="'Segoe UI','Helvetica Neue',Arial,sans-serif" font-size="13" fill="#8b949e" letter-spacing="3">AI-DRIVEN SCIENCE · AUDIT · REPRODUCIBILITY</text>
  <line x1="420" y1="545" x2="780" y2="545" stroke="#6bcf7f" stroke-width="2" opacity="0.4"/>
  <text x="1090" y="600" text-anchor="end" font-family="'Segoe UI','Helvetica Neue',Arial,sans-serif" font-size="11" fill="#484f58">ml-ke.github.io</text>
  <circle cx="1110" cy="607" r="3" fill="#6bcf7f" opacity="0.6"/>
</svg>