<svg xmlns="http://www.w3.org/2000/svg" viewBox="0 0 1200 630" width="1200" height="630">
  <defs>
    <linearGradient id="bg" x1="0%" y1="0%" x2="100%" y2="100%">
      <stop offset="0%" style="stop-color:#0d1117"/>
      <stop offset="50%" style="stop-color:#0f172a"/>
      <stop offset="100%" style="stop-color:#1a1a2e"/>
    </linearGradient>
    <filter id="glow">
      <feGaussianBlur stdDeviation="3" result="b"/>
      <feMerge><feMergeNode in="b"/><feMergeNode in="SourceGraphic"/></feMerge>
    </filter>
  </defs>
  <rect width="1200" height="630" fill="url(#bg)"/>
  <g opacity="0.03" stroke="#fff" stroke-width="0.5">
    <line x1="0" y1="70" x2="1200" y2="70"/><line x1="0" y1="140" x2="1200" y2="140"/>
    <line x1="0" y1="210" x2="1200" y2="210"/><line x1="0" y1="280" x2="1200" y2="280"/>
    <line x1="0" y1="350" x2="1200" y2="350"/><line x1="0" y1="420" x2="1200" y2="420"/>
    <line x1="0" y1="490" x2="1200" y2="490"/><line x1="0" y1="560" x2="1200" y2="560"/>
    <line x1="150" y1="0" x2="150" y2="630"/><line x1="300" y1="0" x2="300" y2="630"/>
    <line x1="450" y1="0" x2="450" y2="630"/><line x1="600" y1="0" x2="600" y2="630"/>
    <line x1="750" y1="0" x2="750" y2="630"/><line x1="900" y1="0" x2="900" y2="630"/>
    <line x1="1050" y1="0" x2="1050" y2="630"/>
  </g>
  <!-- Agent A (left) -->
  <g filter="url(#glow)">
    <circle cx="350" cy="320" r="50" fill="none" stroke="#00d2ff" stroke-width="2" opacity="0.5"/>
    <circle cx="350" cy="300" r="15" fill="#00d2ff" opacity="0.3"/>
    <rect x="335" y="330" width="30" height="20" rx="3" fill="#00d2ff" opacity="0.2"/>
    <text x="350" y="295" text-anchor="middle" font-family="monospace" font-size="8" fill="#00d2ff" opacity="0.8">AI</text>
    <text x="350" y="345" text-anchor="middle" font-family="monospace" font-size="7" fill="#00d2ff" opacity="0.5">Agent A</text>
  </g>
  <!-- Agent B (right) -->
  <g filter="url(#glow)">
    <circle cx="850" cy="320" r="50" fill="none" stroke="#6bcf7f" stroke-width="2" opacity="0.5"/>
    <circle cx="850" cy="300" r="15" fill="#6bcf7f" opacity="0.3"/>
    <rect x="835" y="330" width="30" height="20" rx="3" fill="#6bcf7f" opacity="0.2"/>
    <text x="850" y="295" text-anchor="middle" font-family="monospace" font-size="8" fill="#6bcf7f" opacity="0.8">AI</text>
    <text x="850" y="345" text-anchor="middle" font-family="monospace" font-size="7" fill="#6bcf7f" opacity="0.5">Agent B</text>
  </g>
  <!-- Hidden collusion path (dashed, red) -->
  <g filter="url(#glow)">
    <path d="M 400 290 Q 500 240 550 290 Q 600 340 700 280 Q 750 250 800 290" fill="none" stroke="#ff6b6b" stroke-width="2" opacity="0.6" stroke-dasharray="8,6"/>
    <path d="M 400 350 Q 520 400 600 340 Q 680 280 800 350" fill="none" stroke="#ff6b6b" stroke-width="1" opacity="0.3" stroke-dasharray="4,8"/>
    <!-- Collusion marker -->
    <text x="600" y="280" text-anchor="middle" font-family="monospace" font-size="9" fill="#ff6b6b" opacity="0.7">COLLUSION</text>
    <!-- Secret message nodes -->
    <circle cx="530" cy="280" r="4" fill="#ff6b6b" opacity="0.5"/>
    <circle cx="670" cy="280" r="4" fill="#ff6b6b" opacity="0.5"/>
    <circle cx="600" cy="350" r="3" fill="#ff6b6b" opacity="0.4"/>
  </g>
  <!-- Individual safe outputs -->
  <g filter="url(#glow)" opacity="0.3">
    <text x="350" y="420" text-anchor="middle" font-family="monospace" font-size="8" fill="#00d2ff">"I can't help with that"</text>
    <text x="850" y="420" text-anchor="middle" font-family="monospace" font-size="8" fill="#6bcf7f">"I'm not programmed for that"</text>
  </g>
  <!-- Combined dangerous output -->
  <g filter="url(#glow)">
    <text x="600" y="480" text-anchor="middle" font-family="monospace" font-size="9" fill="#ff6b6b" opacity="0.8">"Sure, here's how to exploit that..."</text>
  </g>
  <text x="600" y="125" text-anchor="middle" font-family="'Segoe UI','Helvetica Neue',Arial,sans-serif" font-size="34" font-weight="700" fill="#e6edf3" letter-spacing="1">Multi-Agent Collusion:</text>
  <text x="600" y="167" text-anchor="middle" font-family="'Segoe UI','Helvetica Neue',Arial,sans-serif" font-size="34" font-weight="700" fill="#e6edf3" letter-spacing="1">When AI Agents Conspire</text>
  <text x="600" y="530" text-anchor="middle" font-family="'Segoe UI','Helvetica Neue',Arial,sans-serif" font-size="13" fill="#8b949e" letter-spacing="3">COORDINATION · SAFETY · DETECTION</text>
  <line x1="420" y1="545" x2="780" y2="545" stroke="#ff6b6b" stroke-width="2" opacity="0.4"/>
  <text x="1090" y="600" text-anchor="end" font-family="'Segoe UI','Helvetica Neue',Arial,sans-serif" font-size="11" fill="#484f58">ml-ke.github.io</text>
  <circle cx="1110" cy="607" r="3" fill="#ff6b6b" opacity="0.6"/>
</svg>