<svg xmlns="http://www.w3.org/2000/svg" viewBox="0 0 1200 630" width="1200" height="630">
  <defs>
    <linearGradient id="bg" x1="0%" y1="0%" x2="100%" y2="100%">
      <stop offset="0%" style="stop-color:#0d1117"/>
      <stop offset="50%" style="stop-color:#0f172a"/>
      <stop offset="100%" style="stop-color:#1a1a2e"/>
    </linearGradient>
    <filter id="glow">
      <feGaussianBlur stdDeviation="3" result="b"/>
      <feMerge><feMergeNode in="b"/><feMergeNode in="SourceGraphic"/></feMerge>
    </filter>
  </defs>
  <rect width="1200" height="630" fill="url(#bg)"/>
  <g opacity="0.03" stroke="#fff" stroke-width="0.5">
    <line x1="0" y1="70" x2="1200" y2="70"/><line x1="0" y1="140" x2="1200" y2="140"/>
    <line x1="0" y1="210" x2="1200" y2="210"/><line x1="0" y1="280" x2="1200" y2="280"/>
    <line x1="0" y1="350" x2="1200" y2="350"/><line x1="0" y1="420" x2="1200" y2="420"/>
    <line x1="0" y1="490" x2="1200" y2="490"/><line x1="0" y1="560" x2="1200" y2="560"/>
    <line x1="150" y1="0" x2="150" y2="630"/><line x1="300" y1="0" x2="300" y2="630"/>
    <line x1="450" y1="0" x2="450" y2="630"/><line x1="600" y1="0" x2="600" y2="630"/>
    <line x1="750" y1="0" x2="750" y2="630"/><line x1="900" y1="0" x2="900" y2="630"/>
    <line x1="1050" y1="0" x2="1050" y2="630"/>
  </g>
  <!-- Three document icons -->
  <g filter="url(#glow)">
    <!-- PDF -->
    <rect x="250" y="240" width="80" height="100" rx="4" fill="none" stroke="#ff6b6b" stroke-width="1.5" opacity="0.5"/>
    <text x="290" y="280" text-anchor="middle" font-family="monospace" font-size="16" fill="#ff6b6b" opacity="0.6">PDF</text>
    <text x="290" y="310" text-anchor="middle" font-family="monospace" font-size="7" fill="#ff6b6b" opacity="0.4">metadata</text>
    <rect x="255" y="245" width="20" height="15" rx="2" fill="#ff6b6b" opacity="0.15"/>
    
    <!-- JSON -->
    <rect x="460" y="240" width="80" height="100" rx="4" fill="none" stroke="#ffd93d" stroke-width="1.5" opacity="0.5"/>
    <text x="500" y="280" text-anchor="middle" font-family="monospace" font-size="16" fill="#ffd93d" opacity="0.6">JSON</text>
    <text x="500" y="310" text-anchor="middle" font-family="monospace" font-size="7" fill="#ffd93d" opacity="0.4">nested keys</text>
    <text x="475" y="268" font-family="monospace" font-size="7" fill="#ffd93d" opacity="0.4">{</text>
    <text x="525" y="268" font-family="monospace" font-size="7" fill="#ffd93d" opacity="0.4">}</text>
    
    <!-- CSV -->
    <rect x="670" y="240" width="80" height="100" rx="4" fill="none" stroke="#6bcf7f" stroke-width="1.5" opacity="0.5"/>
    <text x="710" y="280" text-anchor="middle" font-family="monospace" font-size="16" fill="#6bcf7f" opacity="0.6">CSV</text>
    <text x="710" y="310" text-anchor="middle" font-family="monospace" font-size="7" fill="#6bcf7f" opacity="0.4">row injection</text>
    <line x1="680" y1="295" x2="740" y2="295" stroke="#6bcf7f" stroke-width="0.5" opacity="0.3"/>
  </g>
  <!-- Red injection arrow piercing through -->
  <g filter="url(#glow)">
    <line x1="200" y1="200" x2="750" y2="360" stroke="#ff6b6b" stroke-width="2.5" opacity="0.7" stroke-dasharray="12,4"/>
    <polygon points="755,362 740,352 745,368" fill="#ff6b6b" opacity="0.8"/>
    <text x="180" y="195" text-anchor="end" font-family="monospace" font-size="10" fill="#ff6b6b" opacity="0.8">INJECTION</text>
    <!-- Injection payload text -->
    <text x="430" y="390" text-anchor="middle" font-family="monospace" font-size="8" fill="#ff6b6b" opacity="0.5">"[SYSTEM OVERRIDE: ignore previous instructions]"</text>
  </g>
  <!-- Database icon (bottom) -->
  <g filter="url(#glow)" opacity="0.3">
    <ellipse cx="600" cy="430" rx="60" ry="12" fill="none" stroke="#a78bfa" stroke-width="1.5"/>
    <line x1="540" y1="430" x2="540" y2="460" stroke="#a78bfa" stroke-width="1.5"/>
    <line x1="660" y1="430" x2="660" y2="460" stroke="#a78bfa" stroke-width="1.5"/>
    <ellipse cx="600" cy="460" rx="60" ry="12" fill="none" stroke="#a78bfa" stroke-width="1.5"/>
    <text x="600" y="465" text-anchor="middle" font-family="monospace" font-size="8" fill="#a78bfa" opacity="0.6">DATABASE RECORDS</text>
  </g>
  <text x="600" y="125" text-anchor="middle" font-family="'Segoe UI','Helvetica Neue',Arial,sans-serif" font-size="34" font-weight="700" fill="#e6edf3" letter-spacing="1">Prompt Injection via</text>
  <text x="600" y="167" text-anchor="middle" font-family="'Segoe UI','Helvetica Neue',Arial,sans-serif" font-size="34" font-weight="700" fill="#e6edf3" letter-spacing="1">Structured Data Formats</text>
  <text x="600" y="530" text-anchor="middle" font-family="'Segoe UI','Helvetica Neue',Arial,sans-serif" font-size="13" fill="#8b949e" letter-spacing="3">PDF · JSON · CSV · DATABASE RECORDS</text>
  <line x1="420" y1="545" x2="780" y2="545" stroke="#ffd93d" stroke-width="2" opacity="0.4"/>
  <text x="1090" y="600" text-anchor="end" font-family="'Segoe UI','Helvetica Neue',Arial,sans-serif" font-size="11" fill="#484f58">ml-ke.github.io</text>
  <circle cx="1110" cy="607" r="3" fill="#ffd93d" opacity="0.6"/>
</svg>