<svg xmlns="http://www.w3.org/2000/svg" viewBox="0 0 1200 630" width="1200" height="630">
  <defs>
    <linearGradient id="bg" x1="0%" y1="0%" x2="100%" y2="100%">
      <stop offset="0%" style="stop-color:#0d1117"/>
      <stop offset="50%" style="stop-color:#161b22"/>
      <stop offset="100%" style="stop-color:#1a1a2e"/>
    </linearGradient>
    <linearGradient id="g1" x1="0%" y1="0%" x2="100%" y2="100%">
      <stop offset="0%" style="stop-color:#ff4444"/>
      <stop offset="100%" style="stop-color:#ff6b6b"/>
    </linearGradient>
    <filter id="glow">
      <feGaussianBlur stdDeviation="3" result="b"/>
      <feMerge><feMergeNode in="b"/><feMergeNode in="SourceGraphic"/></feMerge>
    </filter>
  </defs>
  <rect width="1200" height="630" fill="url(#bg)"/>
  <g opacity="0.03" stroke="#fff" stroke-width="0.5">
    <line x1="0" y1="70" x2="1200" y2="70"/><line x1="0" y1="140" x2="1200" y2="140"/>
    <line x1="0" y1="210" x2="1200" y2="210"/><line x1="0" y1="280" x2="1200" y2="280"/>
    <line x1="0" y1="350" x2="1200" y2="350"/><line x1="0" y1="420" x2="1200" y2="420"/>
    <line x1="0" y1="490" x2="1200" y2="490"/><line x1="0" y1="560" x2="1200" y2="560"/>
    <line x1="150" y1="0" x2="150" y2="630"/><line x1="300" y1="0" x2="300" y2="630"/>
    <line x1="450" y1="0" x2="450" y2="630"/><line x1="600" y1="0" x2="600" y2="630"/>
    <line x1="750" y1="0" x2="750" y2="630"/><line x1="900" y1="0" x2="900" y2="630"/>
    <line x1="1050" y1="0" x2="1050" y2="630"/>
  </g>
  
  <g filter="url(#glow)">
    <rect x="300" y="200" width="180" height="100" rx="8" fill="none" stroke="#ff4444" stroke-width="2" opacity="0.4"/>
    <text x="390" y="255" text-anchor="middle" font-family="monospace" font-size="11" fill="#ff4444" opacity="0.6">USER INPUT</text>
    <rect x="600" y="200" width="180" height="100" rx="8" fill="none" stroke="#ff6b6b" stroke-width="2" opacity="0.4"/>
    <text x="690" y="255" text-anchor="middle" font-family="monospace" font-size="11" fill="#ff6b6b" opacity="0.6">LLM</text>
    <rect x="450" y="380" width="180" height="80" rx="8" fill="none" stroke="#ffd93d" stroke-width="2" opacity="0.4"/>
    <text x="540" y="428" text-anchor="middle" font-family="monospace" font-size="11" fill="#ffd93d" opacity="0.6">OUTPUT</text>
    <!-- Arrows -->
    <polyline points="480,250 590,250" fill="none" stroke="#ff4444" stroke-width="2" opacity="0.5" marker-end="none"/>
    <polygon points="585,243 600,250 585,257" fill="#ff4444" opacity="0.5"/>
    <polyline points="690,300 540,375" fill="none" stroke="#ffd93d" stroke-width="2" opacity="0.5"/>
    <polygon points="546,380 536,369 550,370" fill="#ffd93d" opacity="0.5"/>
  </g>
  <text x="600" y="140" text-anchor="middle" font-family="'Segoe UI','Helvetica Neue',Arial,sans-serif" font-size="34" font-weight="700" fill="#e6edf3" letter-spacing="1">Prompt Injection via</text>
  <text x="600" y="182" text-anchor="middle" font-family="'Segoe UI','Helvetica Neue',Arial,sans-serif" font-size="34" font-weight="700" fill="#e6edf3" letter-spacing="1">Structured Data Formats</text>
  <text x="600" y="520" text-anchor="middle" font-family="'Segoe UI','Helvetica Neue',Arial,sans-serif" font-size="13" fill="#8b949e" letter-spacing="3">PDF · JSON · CSV · DATABASE RECORDS</text>
  <line x1="420" y1="535" x2="780" y2="535" stroke="url(#g1)" stroke-width="2" opacity="0.4"/>
  <text x="1090" y="600" text-anchor="end" font-family="'Segoe UI','Helvetica Neue',Arial,sans-serif" font-size="11" fill="#484f58">ml-ke.github.io</text>
  <circle cx="1110" cy="607" r="3" fill="#ff4444" opacity="0.6"/>
</svg>