<svg xmlns="http://www.w3.org/2000/svg" viewBox="0 0 1200 630" width="1200" height="630">
  <defs>
    <linearGradient id="bg" x1="0%" y1="0%" x2="100%" y2="100%">
      <stop offset="0%" style="stop-color:#0d1117"/>
      <stop offset="50%" style="stop-color:#0f172a"/>
      <stop offset="100%" style="stop-color:#1a1a2e"/>
    </linearGradient>
    <filter id="glow">
      <feGaussianBlur stdDeviation="3" result="b"/>
      <feMerge><feMergeNode in="b"/><feMergeNode in="SourceGraphic"/></feMerge>
    </filter>
  </defs>
  <rect width="1200" height="630" fill="url(#bg)"/>
  <g opacity="0.03" stroke="#fff" stroke-width="0.5">
    <line x1="0" y1="70" x2="1200" y2="70"/><line x1="0" y1="140" x2="1200" y2="140"/>
    <line x1="0" y1="210" x2="1200" y2="210"/><line x1="0" y1="280" x2="1200" y2="280"/>
    <line x1="0" y1="350" x2="1200" y2="350"/><line x1="0" y1="420" x2="1200" y2="420"/>
    <line x1="0" y1="490" x2="1200" y2="490"/><line x1="0" y1="560" x2="1200" y2="560"/>
    <line x1="150" y1="0" x2="150" y2="630"/><line x1="300" y1="0" x2="300" y2="630"/>
    <line x1="450" y1="0" x2="450" y2="630"/><line x1="600" y1="0" x2="600" y2="630"/>
    <line x1="750" y1="0" x2="750" y2="630"/><line x1="900" y1="0" x2="900" y2="630"/>
    <line x1="1050" y1="0" x2="1050" y2="630"/>
  </g>
  <!-- Circuit board traces -->
  <g filter="url(#glow)" stroke="#00d2ff" stroke-width="1.5" opacity="0.3" fill="none">
    <path d="M 200 300 L 300 300 L 350 250 L 450 250"/>
    <path d="M 200 340 L 320 340 L 380 400 L 480 400"/>
    <path d="M 480 250 L 550 250 L 600 300 L 700 300"/>
    <path d="M 480 400 L 550 400 L 600 350 L 700 350"/>
    <path d="M 700 300 L 800 280 L 900 280"/>
    <path d="M 700 350 L 800 380 L 900 380"/>
    <circle cx="300" cy="300" r="4" fill="#00d2ff" opacity="0.5"/>
    <circle cx="320" cy="340" r="4" fill="#00d2ff" opacity="0.5"/>
    <circle cx="550" cy="250" r="4" fill="#00d2ff" opacity="0.5"/>
    <circle cx="550" cy="400" r="4" fill="#00d2ff" opacity="0.5"/>
    <circle cx="800" cy="280" r="4" fill="#00d2ff" opacity="0.5"/>
    <circle cx="800" cy="380" r="4" fill="#00d2ff" opacity="0.5"/>
  </g>
  <!-- Brain/memory cluster -->
  <g filter="url(#glow)">
    <ellipse cx="600" cy="340" rx="100" ry="60" fill="none" stroke="#00d2ff" stroke-width="2" opacity="0.4"/>
    <ellipse cx="570" cy="330" rx="40" ry="30" fill="none" stroke="#00d2ff" stroke-width="1" opacity="0.3"/>
    <ellipse cx="630" cy="350" rx="35" ry="25" fill="none" stroke="#00d2ff" stroke-width="1" opacity="0.3"/>
    <ellipse cx="600" cy="370" rx="50" ry="20" fill="none" stroke="#00d2ff" stroke-width="1" opacity="0.2"/>
    <!-- Memory bank (3D chip) -->
    <rect x="550" y="310" width="30" height="20" rx="2" fill="#00d2ff" opacity="0.2" stroke="#00d2ff" stroke-width="1"/>
    <rect x="585" y="310" width="30" height="20" rx="2" fill="#00d2ff" opacity="0.2" stroke="#00d2ff" stroke-width="1"/>
    <rect x="620" y="310" width="30" height="20" rx="2" fill="#00d2ff" opacity="0.2" stroke="#00d2ff" stroke-width="1"/>
    <text x="600" y="340" text-anchor="middle" font-family="monospace" font-size="9" fill="#00d2ff" opacity="0.7">MEM</text>
  </g>
  <!-- Red injection needle (attack) -->
  <g filter="url(#glow)">
    <line x1="800" y1="220" x2="660" y2="310" stroke="#ff6b6b" stroke-width="3" opacity="0.8"/>
    <line x1="800" y1="220" x2="810" y2="210" stroke="#ff6b6b" stroke-width="3" opacity="0.8"/>
    <line x1="810" y1="210" x2="820" y2="230" stroke="#ff6b6b" stroke-width="3" opacity="0.8"/>
    <circle cx="655" cy="312" r="6" fill="#ff6b6b" opacity="0.9"/>
    <!-- Drip -->
    <circle cx="655" cy="328" r="2" fill="#ff6b6b" opacity="0.6"/>
    <text x="880" y="215" text-anchor="middle" font-family="monospace" font-size="10" fill="#ff6b6b" opacity="0.8">INJECTION</text>
  </g>
  <text x="600" y="125" text-anchor="middle" font-family="'Segoe UI','Helvetica Neue',Arial,sans-serif" font-size="34" font-weight="700" fill="#e6edf3" letter-spacing="1">Memory as an Attack Surface:</text>
  <text x="600" y="167" text-anchor="middle" font-family="'Segoe UI','Helvetica Neue',Arial,sans-serif" font-size="34" font-weight="700" fill="#e6edf3" letter-spacing="1">Poisoning AI Agent Memory</text>
  <text x="600" y="530" text-anchor="middle" font-family="'Segoe UI','Helvetica Neue',Arial,sans-serif" font-size="13" fill="#8b949e" letter-spacing="3">PERSISTENT MEMORY · AGENT SECURITY</text>
  <line x1="420" y1="545" x2="780" y2="545" stroke="#00d2ff" stroke-width="2" opacity="0.4"/>
  <text x="1090" y="600" text-anchor="end" font-family="'Segoe UI','Helvetica Neue',Arial,sans-serif" font-size="11" fill="#484f58">ml-ke.github.io</text>
  <circle cx="1110" cy="607" r="3" fill="#00d2ff" opacity="0.6"/>
</svg>