<svg xmlns="http://www.w3.org/2000/svg" viewBox="0 0 1200 630" width="1200" height="630">
  <defs>
    <linearGradient id="bg" x1="0%" y1="0%" x2="100%" y2="100%">
      <stop offset="0%" style="stop-color:#0d1117"/>
      <stop offset="50%" style="stop-color:#0f172a"/>
      <stop offset="100%" style="stop-color:#1a1a2e"/>
    </linearGradient>
    <filter id="glow">
      <feGaussianBlur stdDeviation="3" result="b"/>
      <feMerge><feMergeNode in="b"/><feMergeNode in="SourceGraphic"/></feMerge>
    </filter>
  </defs>
  <rect width="1200" height="630" fill="url(#bg)"/>
  <g opacity="0.03" stroke="#fff" stroke-width="0.5">
    <line x1="0" y1="70" x2="1200" y2="70"/><line x1="0" y1="140" x2="1200" y2="140"/>
    <line x1="0" y1="210" x2="1200" y2="210"/><line x1="0" y1="280" x2="1200" y2="280"/>
    <line x1="0" y1="350" x2="1200" y2="350"/><line x1="0" y1="420" x2="1200" y2="420"/>
    <line x1="0" y1="490" x2="1200" y2="490"/><line x1="0" y1="560" x2="1200" y2="560"/>
    <line x1="150" y1="0" x2="150" y2="630"/><line x1="300" y1="0" x2="300" y2="630"/>
    <line x1="450" y1="0" x2="450" y2="630"/><line x1="600" y1="0" x2="600" y2="630"/>
    <line x1="750" y1="0" x2="750" y2="630"/><line x1="900" y1="0" x2="900" y2="630"/>
    <line x1="1050" y1="0" x2="1050" y2="630"/>
  </g>
  <!-- Neural network silhouette (faded) -->
  <g filter="url(#glow)" opacity="0.15">
    <circle cx="300" cy="250" r="6" fill="#a78bfa"/>
    <circle cx="300" cy="340" r="6" fill="#a78bfa"/>
    <circle cx="300" cy="430" r="6" fill="#a78bfa"/>
    <circle cx="500" cy="220" r="6" fill="#a78bfa"/>
    <circle cx="500" cy="320" r="6" fill="#a78bfa"/>
    <circle cx="500" cy="420" r="6" fill="#a78bfa"/>
    <circle cx="700" cy="250" r="6" fill="#a78bfa"/>
    <circle cx="700" cy="340" r="6" fill="#a78bfa"/>
    <circle cx="700" cy="430" r="6" fill="#a78bfa"/>
    <circle cx="900" cy="290" r="6" fill="#a78bfa"/>
    <circle cx="900" cy="380" r="6" fill="#a78bfa"/>
    <g stroke="#a78bfa" stroke-width="0.5" opacity="0.2">
      <line x1="306" y1="250" x2="494" y2="220"/><line x1="306" y1="250" x2="494" y2="320"/>
      <line x1="306" y1="340" x2="494" y2="320"/><line x1="306" y1="340" x2="494" y2="420"/>
      <line x1="306" y1="430" x2="494" y2="320"/><line x1="306" y1="430" x2="494" y2="420"/>
      <line x1="506" y1="220" x2="694" y2="250"/><line x1="506" y1="220" x2="694" y2="340"/>
      <line x1="506" y1="320" x2="694" y2="250"/><line x1="506" y1="320" x2="694" y2="340"/>
      <line x1="506" y1="320" x2="694" y2="430"/><line x1="506" y1="420" x2="694" y2="340"/>
      <line x1="506" y1="420" x2="694" y2="430"/>
      <line x1="706" y1="250" x2="894" y2="290"/><line x1="706" y1="340" x2="894" y2="290"/>
      <line x1="706" y1="340" x2="894" y2="380"/><line x1="706" y1="430" x2="894" y2="380"/>
    </g>
  </g>
  <!-- Fingerprint overlay -->
  <g filter="url(#glow)">
    <!-- Fingerprint ridges -->
    <path d="M 560 260 Q 580 250 600 260 Q 620 270 640 260" fill="none" stroke="#00d2ff" stroke-width="2.5" opacity="0.7"/>
    <path d="M 550 290 Q 580 280 600 290 Q 620 300 650 290" fill="none" stroke="#00d2ff" stroke-width="2.5" opacity="0.6"/>
    <path d="M 540 320 Q 570 310 600 320 Q 630 330 660 320" fill="none" stroke="#00d2ff" stroke-width="2.5" opacity="0.5"/>
    <path d="M 550 350 Q 580 340 600 350 Q 620 360 650 350" fill="none" stroke="#00d2ff" stroke-width="2.5" opacity="0.4"/>
    <path d="M 570 380 Q 590 370 600 380 Q 610 390 630 380" fill="none" stroke="#00d2ff" stroke-width="2.5" opacity="0.3"/>
    <!-- Fingerprint arch -->
    <path d="M 570 250 Q 600 230 630 250" fill="none" stroke="#00d2ff" stroke-width="2" opacity="0.5"/>
    <path d="M 555 270 Q 600 245 645 270" fill="none" stroke="#00d2ff" stroke-width="2" opacity="0.5"/>
  </g>
  <!-- Checkmark (ownership verified) -->
  <g filter="url(#glow)">
    <circle cx="850" cy="240" r="25" fill="none" stroke="#6bcf7f" stroke-width="2" opacity="0.6"/>
    <polyline points="838,240 846,250 862,230" fill="none" stroke="#6bcf7f" stroke-width="2.5" opacity="0.8"/>
    <text x="850" y="290" text-anchor="middle" font-family="monospace" font-size="8" fill="#6bcf7f" opacity="0.6">VERIFIED</text>
  </g>
  <text x="600" y="125" text-anchor="middle" font-family="'Segoe UI','Helvetica Neue',Arial,sans-serif" font-size="34" font-weight="700" fill="#e6edf3" letter-spacing="1">Model Watermarking:</text>
  <text x="600" y="167" text-anchor="middle" font-family="'Segoe UI','Helvetica Neue',Arial,sans-serif" font-size="34" font-weight="700" fill="#e6edf3" letter-spacing="1">Proving AI Ownership</text>
  <text x="600" y="530" text-anchor="middle" font-family="'Segoe UI','Helvetica Neue',Arial,sans-serif" font-size="13" fill="#8b949e" letter-spacing="3">THEFT DETECTION · IP PROTECTION</text>
  <line x1="420" y1="545" x2="780" y2="545" stroke="#00d2ff" stroke-width="2" opacity="0.4"/>
  <text x="1090" y="600" text-anchor="end" font-family="'Segoe UI','Helvetica Neue',Arial,sans-serif" font-size="11" fill="#484f58">ml-ke.github.io</text>
  <circle cx="1110" cy="607" r="3" fill="#00d2ff" opacity="0.6"/>
</svg>